<svg width="2206" height="1155" xmlns="http://www.w3.org/2000/svg" xmlns:xlink="http://www.w3.org/1999/xlink"><defs><path id="a" d="M50 0h350v500H50z"/><path id="b" d="M0 50h350v500H0z"/><path id="c" d="M50 125h60v100H50z"/><filter x="-5%" y="-3%" width="110%" height="106%" filterUnits="objectBoundingBox" id="d"><feGaussianBlur stdDeviation="1.5" in="SourceAlpha" result="shadowBlurInner1"/><feOffset dx="3" dy="3" in="shadowBlurInner1" result="shadowOffsetInner1"/><feComposite in="shadowOffsetInner1" in2="SourceAlpha" operator="arithmetic" k2="-1" k3="1" result="shadowInnerInner1"/><feColorMatrix values="0 0 0 0 0 0 0 0 0 0 0 0 0 0 0 0 0 0 0.5 0" in="shadowInnerInner1"/></filter><path id="e" d="M240 125h60v100h-60z"/><filter x="-5%" y="-3%" width="110%" height="106%" filterUnits="objectBoundingBox" id="f"><feGaussianBlur stdDeviation="1.5" in="SourceAlpha" result="shadowBlurInner1"/><feOffset dx="3" dy="3" in="shadowBlurInner1" result="shadowOffsetInner1"/><feComposite in="shadowOffsetInner1" in2="SourceAlpha" operator="arithmetic" k2="-1" k3="1" result="shadowInnerInner1"/><feColorMatrix values="0 0 0 0 0 0 0 0 0 0 0 0 0 0 0 0 0 0 0.5 0" in="shadowInnerInner1"/></filter><path id="g" d="M50 125h60v100H50z"/><filter x="-5%" y="-3%" width="110%" height="106%" filterUnits="objectBoundingBox" id="h"><feGaussianBlur stdDeviation="1.5" in="SourceAlpha" result="shadowBlurInner1"/><feOffset dx="3" dy="3" in="shadowBlurInner1" result="shadowOffsetInner1"/><feComposite in="shadowOffsetInner1" in2="SourceAlpha" operator="arithmetic" k2="-1" k3="1" result="shadowInnerInner1"/><feColorMatrix values="0 0 0 0 0 0 0 0 0 0 0 0 0 0 0 0 0 0 0.5 0" in="shadowInnerInner1"/></filter><path id="i" d="M240 125h60v100h-60z"/><filter x="-5%" y="-3%" width="110%" height="106%" filterUnits="objectBoundingBox" id="j"><feGaussianBlur stdDeviation="1.5" in="SourceAlpha" result="shadowBlurInner1"/><feOffset dx="3" dy="3" in="shadowBlurInner1" result="shadowOffsetInner1"/><feComposite in="shadowOffsetInner1" in2="SourceAlpha" operator="arithmetic" k2="-1" k3="1" result="shadowInnerInner1"/><feColorMatrix values="0 0 0 0 0 0 0 0 0 0 0 0 0 0 0 0 0 0 0.5 0" in="shadowInnerInner1"/></filter><path id="k" d="M-3.559 34.963h108.167v27.016H-3.559z"/><path id="l" d="M-3.559 52.974h108.167V79.99H-3.559z"/><path d="M1.832 95.167L1.83 77.151" id="m"/><path d="M79.162 18.724L79.159.713" id="n"/><path id="o" d="M7.002 9.139h36.056v27.016H7.002z"/><path id="p" d="M7.002 27.15h36.056v27.016H7.002z"/><path id="q" d="M7.002 9.139h36.056v27.016H7.002z"/><path id="r" d="M7.002 27.15h36.056v27.016H7.002z"/><path id="s" d="M-19.9 73.951h216.334v27.016H-19.9z"/><path id="t" d="M-19.4 92.828h216.334v27.016H-19.4z"/><path id="u" d="M-3.559 34.963h108.167v27.016H-3.559z"/><path id="v" d="M-3.559 52.974h108.167V79.99H-3.559z"/><path d="M1.832 95.167L1.83 77.151" id="w"/><path d="M79.162 18.724L79.159.713" id="x"/><path id="y" d="M7.002 9.139h36.056v27.016H7.002z"/><path id="z" d="M7.002 27.15h36.056v27.016H7.002z"/><path id="A" d="M7.002 9.139h36.056v27.016H7.002z"/><path id="B" d="M7.002 27.15h36.056v27.016H7.002z"/><path id="C" d="M-19.9 73.951h216.334v27.016H-19.9z"/><path id="D" d="M-19.4 92.828h216.334v27.016H-19.4z"/><path d="M1666.5 792.5h-69.462" id="F"/><filter x="-13.6%" y="-150%" width="127.1%" height="480%" filterUnits="objectBoundingBox" id="E"><feMorphology radius="2.5" operator="dilate" in="SourceAlpha" result="shadowSpreadOuter1"/><feOffset dy="2" in="shadowSpreadOuter1" result="shadowOffsetOuter1"/><feMorphology radius="2.5" in="SourceAlpha" result="shadowInner"/><feOffset dy="2" in="shadowInner" result="shadowInner"/><feComposite in="shadowOffsetOuter1" in2="shadowInner" operator="out" result="shadowOffsetOuter1"/><feGaussianBlur stdDeviation="2" in="shadowOffsetOuter1" result="shadowBlurOuter1"/><feColorMatrix values="0 0 0 0 0 0 0 0 0 0 0 0 0 0 0 0 0 0 0.5 0" in="shadowBlurOuter1"/></filter><path d="M1660.5 583.5l-645 149" id="H"/><filter x="-1.5%" y="-5%" width="102.9%" height="112.7%" filterUnits="objectBoundingBox" id="G"><feMorphology radius="2.5" operator="dilate" in="SourceAlpha" result="shadowSpreadOuter1"/><feOffset dy="2" in="shadowSpreadOuter1" result="shadowOffsetOuter1"/><feMorphology radius="2.5" in="SourceAlpha" result="shadowInner"/><feOffset dy="2" in="shadowInner" result="shadowInner"/><feComposite in="shadowOffsetOuter1" in2="shadowInner" operator="out" result="shadowOffsetOuter1"/><feGaussianBlur stdDeviation="2" in="shadowOffsetOuter1" result="shadowBlurOuter1"/><feColorMatrix values="0 0 0 0 0 0 0 0 0 0 0 0 0 0 0 0 0 0 0.5 0" in="shadowBlurOuter1"/></filter><path d="M1645.5 373.5l-615 172" id="J"/><filter x="-1.5%" y="-4.3%" width="103.1%" height="111%" filterUnits="objectBoundingBox" id="I"><feMorphology radius="2.5" operator="dilate" in="SourceAlpha" result="shadowSpreadOuter1"/><feOffset dy="2" in="shadowSpreadOuter1" result="shadowOffsetOuter1"/><feMorphology radius="2.5" in="SourceAlpha" result="shadowInner"/><feOffset dy="2" in="shadowInner" result="shadowInner"/><feComposite in="shadowOffsetOuter1" in2="shadowInner" operator="out" result="shadowOffsetOuter1"/><feGaussianBlur stdDeviation="2" in="shadowOffsetOuter1" result="shadowBlurOuter1"/><feColorMatrix values="0 0 0 0 0 0 0 0 0 0 0 0 0 0 0 0 0 0 0.5 0" in="shadowBlurOuter1"/></filter><path d="M1645.5 373.5l-217-74" id="L"/><filter x="-4.4%" width="108.7%" height="125.3%" filterUnits="objectBoundingBox" id="K"><feMorphology radius="2.5" operator="dilate" in="SourceAlpha" result="shadowSpreadOuter1"/><feOffset dy="2" in="shadowSpreadOuter1" result="shadowOffsetOuter1"/><feMorphology radius="2.5" in="SourceAlpha" result="shadowInner"/><feOffset dy="2" in="shadowInner" result="shadowInner"/><feComposite in="shadowOffsetOuter1" in2="shadowInner" operator="out" result="shadowOffsetOuter1"/><feGaussianBlur stdDeviation="2" in="shadowOffsetOuter1" result="shadowBlurOuter1"/><feColorMatrix values="0 0 0 0 0 0 0 0 0 0 0 0 0 0 0 0 0 0 0.5 0" in="shadowBlurOuter1"/></filter></defs><g fill="none" fill-rule="evenodd"><path stroke="#D0011B" stroke-width="5" d="M103 96h1475v967H103z"/><path stroke="#FFC674" fill="#333" d="M691.343 372.852H482.776L349.74 270.3 429.65 166 236 270.3l184.564 184.565h270.779z"/><path stroke="#FFC674" fill="#333" d="M641.343 422.852H432.776L299.74 320.3 379.65 216 186 320.3l184.564 184.565h270.779z"/><path d="M641.452 504.966l50.064-49.926M641.425 422.963l49.764-50.118M378.774 216.744l50.114-50.159M185.51 320.504l50.082-50.011M300.29 320.486L350 270.211M433.124 422.666l49.833-49.922" stroke="#FFC674"/><path fill="#333" d="M188.224 318.534l63.466-34.131-13.466-14.706-2.31 1.205z"/><path fill="#D8D8D8" d="M641.841 503.873l49.006-48.772v-.779h-49.006z"/><g><g transform="translate(641 350)"><use fill="#795548" xlink:href="#a"/><path stroke="#FFC674" d="M50.5.5h349v499h-349z"/></g><g transform="translate(641 350)"><use fill="#795548" xlink:href="#b"/><path stroke="#FFC674" d="M.5 50.5h349v499H.5z"/></g><path d="M990.605 899.664l50.093-50.058M990.587 400.281l50.003-49.635M641.44 400.419l49.884-50.042" stroke="#FFC674"/><path fill="#795548" d="M642.526 400.02h50.065v-49.005h-1.509zM991.01 898.55l48.988-48.958.003-.892h-49.008z"/><g transform="translate(641 350)"><use fill="#F79F1F" xlink:href="#c"/><use fill="#000" filter="url(#d)" xlink:href="#c"/><path stroke="#979797" d="M50.5 125.5h59v99h-59z"/></g><g transform="translate(641 350)"><use fill="#F79F1F" xlink:href="#e"/><use fill="#000" filter="url(#f)" xlink:href="#e"/><path stroke="#979797" d="M240.5 125.5h59v99h-59z"/></g><g transform="translate(641 350)"><use fill="#F79F1F" xlink:href="#g"/><use fill="#000" filter="url(#h)" xlink:href="#g"/><path stroke="#FFC674" d="M50.5 125.5h59v99h-59z"/></g><g transform="translate(641 350)"><use fill="#F79F1F" xlink:href="#i"/><use fill="#000" filter="url(#j)" xlink:href="#i"/><path stroke="#FFC674" d="M240.5 125.5h59v99h-59z"/></g></g><g><g transform="rotate(-15 3297.227 -2065.131)"><use fill="#F79F1F" xlink:href="#k"/><path stroke="#FFC674" d="M-4.059 34.463h109.167v28.016H-4.059z"/></g><g transform="rotate(-15 3283.56 -2014.126)"><use fill="#F79F1F" xlink:href="#l"/><path stroke="#FFC674" d="M-4.059 52.474h109.167V80.49H-4.059z"/></g><use fill="#D8D8D8" xlink:href="#m" transform="rotate(30 -1054.288 1659.843)"/><use fill="#D8D8D8" xlink:href="#n" transform="rotate(30 -1054.288 1659.843)"/><path fill="#F79F1F" d="M657.49 828.539l-13.889 3.707 8.31-14.41.897-.218zM755.782 830.797l8.321-14.427-.28-.977-11.395 2.829z"/><path d="M755.718 831.867l9.005-15.59" stroke="#FFC674"/><g><g transform="rotate(75 -160.148 820.374)"><use fill="#F79F1F" xlink:href="#o"/><path stroke="#FFC674" d="M6.502 8.639h37.056v28.016H6.502z"/></g><g transform="rotate(75 -163.078 831.31)"><use fill="#F79F1F" xlink:href="#p"/><path stroke="#FFC674" d="M6.502 26.65h37.056v28.016H6.502z"/></g><path d="M630.806 794.015l9.016-15.62" stroke="#FFC674"/><path fill="#F79F1F" d="M640.021 779.045l-8.301 14.361 11.996-3.215-3.026-11.358z"/><path d="M657.786 787.313l8.985-15.563M676.849 807.146l-9.033 15.613" stroke="#FFC674"/><path fill="#F79F1F" d="M667.89 821.656l-3.223-12.106 11.365-2.875.149.65z"/></g><g><g transform="rotate(75 -36.801 915.71)"><use fill="#F79F1F" xlink:href="#q"/><path stroke="#FFC674" d="M6.502 8.639h37.056v28.016H6.502z"/></g><g transform="rotate(75 -39.731 926.647)"><use fill="#F79F1F" xlink:href="#r"/><path stroke="#FFC674" d="M6.502 26.65h37.056v28.016H6.502z"/></g><path d="M814.317 745.533l9.015-15.619" stroke="#FFC674"/><path fill="#F79F1F" d="M823.532 730.563l-8.302 14.362 11.997-3.216-3.026-11.357z"/><path d="M841.296 738.832l8.986-15.563M860.359 758.664l-9.032 15.613" stroke="#FFC674"/><path fill="#F79F1F" d="M851.4 773.175l-3.222-12.107 11.364-2.875.15.651z"/></g><g><g transform="rotate(-15 2866.029 -2064.934)"><use fill="#F79F1F" xlink:href="#s"/><path stroke="#FFC674" d="M-20.4 73.451h217.334v28.016H-20.4z"/></g><g transform="rotate(-15 2853.12 -2011.096)"><use fill="#F79F1F" xlink:href="#t"/><path stroke="#FFC674" d="M-19.9 92.328h217.334v28.016H-19.9z"/></g><path d="M622.207 764.151l9.044-16.556M832.053 708.444l9.448-17.202M839.769 735.168l8.998-16.605" stroke="#FFC674"/><path fill="#F79F1F" d="M839.82 734.067l8.405-15.115-.263-.894-11.623 2.985zM631.588 747.998l-8.486 15.542 12.59-3.37-2.268-12.534z"/></g><g><g transform="rotate(165 439.657 441.818)"><use fill="#F79F1F" xlink:href="#u"/><path stroke="#FFC674" d="M-4.059 34.463h109.167v28.016H-4.059z"/></g><g transform="rotate(165 446.372 443.617)"><use fill="#F79F1F" xlink:href="#v"/><path stroke="#FFC674" d="M-4.059 52.474h109.167V80.49H-4.059z"/></g><use fill="#D8D8D8" xlink:href="#w" transform="rotate(-150 574.038 268.628)"/><use fill="#D8D8D8" xlink:href="#x" transform="rotate(-150 574.038 268.628)"/><path fill="#F79F1F" d="M968.04 709.268l13.887-3.707-8.31 14.41-.897.218zM869.747 707.01l-8.322 14.427.28.976 11.395-2.829z"/><path d="M869.81 705.94l-9.004 15.59" stroke="#FFC674"/><g><g transform="rotate(-105 773.27 22.362)"><use fill="#F79F1F" xlink:href="#y"/><path stroke="#FFC674" d="M6.502 8.639h37.056v28.016H6.502z"/></g><g transform="rotate(-105 764.878 20.113)"><use fill="#F79F1F" xlink:href="#z"/><path stroke="#FFC674" d="M6.502 26.65h37.056v28.016H6.502z"/></g><path d="M994.722 743.791l-9.015 15.62" stroke="#FFC674"/><path fill="#F79F1F" d="M985.507 758.762l8.302-14.362-11.997 3.216 3.026 11.357z"/><path d="M967.743 750.493l-8.985 15.563M948.68 730.66l9.032-15.612" stroke="#FFC674"/><path fill="#F79F1F" d="M957.638 716.15l3.223 12.107-11.364 2.875-.15-.651z"/></g><g><g transform="rotate(-105 700.115 117.009)"><use fill="#F79F1F" xlink:href="#A"/><path stroke="#FFC674" d="M6.502 8.639h37.056v28.016H6.502z"/></g><g transform="rotate(-105 691.723 114.76)"><use fill="#F79F1F" xlink:href="#B"/><path stroke="#FFC674" d="M6.502 26.65h37.056v28.016H6.502z"/></g><path d="M811.212 792.273l-9.015 15.62" stroke="#FFC674"/><path fill="#F79F1F" d="M801.997 807.243l8.302-14.362-11.997 3.216 3.026 11.358z"/><path d="M784.232 798.975l-8.985 15.563M765.17 779.142l9.032-15.613" stroke="#FFC674"/><path fill="#F79F1F" d="M774.128 764.631l3.223 12.107-11.365 2.875-.149-.65z"/></g><g><g transform="rotate(165 439.683 498.586)"><use fill="#F79F1F" xlink:href="#C"/><path stroke="#FFC674" d="M-20.4 73.451h217.334v28.016H-20.4z"/></g><g transform="rotate(165 446.77 500.285)"><use fill="#F79F1F" xlink:href="#D"/><path stroke="#FFC674" d="M-19.9 92.328h217.334v28.016H-19.9z"/></g><path d="M1003.322 773.655l-9.044 16.557M793.476 829.362l-9.448 17.202M785.76 802.638l-8.999 16.605" stroke="#FFC674"/><path fill="#F79F1F" d="M785.708 803.739l-8.404 15.115.263.895 11.623-2.985zM993.941 789.808l8.486-15.542-12.59 3.37 2.267 12.535z"/></g></g></g><g><g stroke="#FFC674"><path fill="#333" d="M1039.657 372.852h208.567L1381.26 270.3 1301.35 166 1495 270.3l-184.564 184.565h-270.779z"/><path fill="#333" d="M989.657 422.852h208.567L1331.26 320.3 1251.35 216 1445 320.3l-184.564 184.565H989.657z"/><path d="M1248.91 372.822l-50.277 49.34"/></g><path d="M989.509 422.706l50.005-50.003M1249.908 214.824l49.718-49.743 1.962 1.146" stroke="#FFC674"/><path fill="#333" d="M990.52 422.353h50.56v-49.005h-1.546zM1250.474 214.966l130.988 70.555 49.182-49.331-130.96-70.53z"/></g><path d="M1686.499 420V313.36h30.396c4.59 0 8.703.549 12.34 1.647 3.639 1.099 6.715 2.808 9.23 5.127 2.514 2.32 4.43 5.261 5.749 8.826 1.318 3.564 1.977 7.837 1.977 12.817s-1.245 9.375-3.735 13.184c-2.49 3.809-5.86 6.763-10.107 8.862 2.588.781 4.87 1.978 6.848 3.59a22.096 22.096 0 0 1 4.98 5.749c1.343 2.221 2.356 4.7 3.04 7.434.683 2.734 1.025 5.615 1.025 8.642 0 4.98-.708 9.387-2.124 13.22-1.416 3.834-3.43 7.056-6.042 9.668-2.613 2.613-5.774 4.578-9.485 5.896-3.711 1.319-7.837 1.978-12.378 1.978h-31.714zm13.403-49.878v38.379h18.31c2.638 0 4.981-.452 7.032-1.355 2.05-.903 3.784-2.173 5.2-3.809 1.416-1.635 2.49-3.637 3.223-6.005.732-2.369 1.099-5.018 1.099-7.947 0-2.93-.306-5.591-.916-7.984-.61-2.392-1.562-4.419-2.856-6.079-1.294-1.66-2.954-2.942-4.98-3.845-2.027-.903-4.456-1.355-7.288-1.355h-18.824zm0-11.28h17.212c2.246 0 4.322-.39 6.226-1.171a13.775 13.775 0 0 0 4.907-3.37c1.367-1.464 2.441-3.259 3.223-5.383.781-2.124 1.172-4.528 1.172-7.214 0-5.86-1.294-10.12-3.882-12.78-2.588-2.662-6.543-3.992-11.865-3.992h-16.993v33.91zM1780.47 420h-12.964V307.5h12.964V420zm17.651-43.286c0-6.201.794-11.633 2.38-16.297 1.587-4.663 3.76-8.557 6.519-11.682 2.759-3.125 5.994-5.48 9.705-7.068 3.71-1.586 7.69-2.38 11.938-2.38 4.297 0 8.325.794 12.085 2.38 3.76 1.587 7.02 3.943 9.778 7.068 2.759 3.125 4.932 7.02 6.518 11.682 1.587 4.664 2.38 10.096 2.38 16.297v7.47c0 6.153-.793 11.56-2.38 16.224-1.586 4.663-3.76 8.557-6.518 11.682-2.759 3.125-5.994 5.469-9.705 7.031-3.71 1.563-7.715 2.344-12.011 2.344-4.297 0-8.313-.781-12.049-2.344-3.735-1.562-6.982-3.906-9.741-7.031-2.759-3.125-4.932-7.02-6.519-11.682-1.586-4.663-2.38-10.071-2.38-16.223v-7.471zm12.964 7.47c0 4.395.452 8.228 1.355 11.5.903 3.271 2.148 5.993 3.735 8.166 1.587 2.173 3.455 3.809 5.603 4.907 2.149 1.099 4.493 1.648 7.032 1.648 11.767 0 17.651-8.74 17.651-26.22v-7.471c0-4.346-.452-8.154-1.355-11.426-.903-3.271-2.148-6.006-3.735-8.203-1.587-2.197-3.467-3.857-5.64-4.98-2.173-1.124-4.529-1.685-7.068-1.685-2.49 0-4.81.561-6.958 1.684-2.148 1.124-4.004 2.784-5.566 4.981-1.563 2.197-2.796 4.932-3.699 8.203-.903 3.272-1.355 7.08-1.355 11.426v7.47zm92.578 26.221c1.904 0 3.711-.293 5.42-.879a12.397 12.397 0 0 0 4.541-2.746c1.318-1.245 2.38-2.832 3.186-4.761.806-1.929 1.282-4.26 1.428-6.995h12.232c-.147 3.956-.965 7.557-2.454 10.804-1.49 3.247-3.442 6.03-5.86 8.35-2.416 2.319-5.212 4.113-8.385 5.383-3.174 1.27-6.543 1.904-10.108 1.904-5.127 0-9.582-.83-13.367-2.49-3.784-1.66-6.921-4.053-9.411-7.178-2.49-3.125-4.346-6.958-5.567-11.5-1.22-4.54-1.83-9.692-1.83-15.453v-8.936c0-5.762.61-10.9 1.83-15.417 1.221-4.517 3.077-8.35 5.567-11.5 2.49-3.149 5.615-5.553 9.375-7.214 3.76-1.66 8.203-2.49 13.33-2.49 4.004 0 7.63.647 10.876 1.941 3.247 1.294 6.03 3.174 8.35 5.64 2.32 2.466 4.138 5.48 5.456 9.045 1.319 3.565 2.051 7.593 2.198 12.085h-12.232c-.293-5.86-1.696-10.254-4.211-13.184-2.515-2.93-5.994-4.394-10.437-4.394-3.418 0-6.226.61-8.423 1.831-2.197 1.22-3.943 2.942-5.237 5.164-1.294 2.221-2.197 4.895-2.71 8.02-.512 3.125-.769 6.616-.769 10.473v8.936c0 3.906.244 7.434.733 10.583.488 3.15 1.379 5.835 2.673 8.057 1.294 2.222 3.052 3.93 5.273 5.127 2.222 1.196 5.066 1.794 8.533 1.794zm61.67-26.66l-6.885 7.91V420h-12.964V307.5h12.964v67.31l5.786-7.984 18.897-26.074h15.527l-25.195 33.105L2001.953 420h-15.088l-21.533-36.255z" fill="#333"/><path d="M1753.37 599.162c-.294 5.518-1.21 10.45-2.747 14.795-1.539 4.346-3.724 8.044-6.556 11.096-2.832 3.052-6.335 5.384-10.51 6.995-4.175 1.611-9.02 2.417-14.538 2.417-5.372 0-10.206-1.05-14.502-3.15-4.297-2.1-7.96-5.102-10.987-9.008-3.027-3.907-5.359-8.618-6.994-14.136-1.636-5.518-2.454-11.719-2.454-18.604v-19.702c0-6.836.818-13.025 2.454-18.567 1.635-5.542 4.004-10.266 7.104-14.172 3.1-3.906 6.897-6.921 11.39-9.045 4.492-2.124 9.57-3.186 15.234-3.186 5.175 0 9.753.78 13.733 2.343 3.98 1.563 7.36 3.858 10.144 6.885 2.783 3.027 4.956 6.763 6.518 11.206 1.563 4.443 2.466 9.546 2.71 15.308h-13.55c-.293-4.2-.854-7.813-1.684-10.84s-2.027-5.53-3.59-7.507a14.113 14.113 0 0 0-5.858-4.395c-2.344-.952-5.152-1.428-8.423-1.428-3.907 0-7.276.793-10.108 2.38-2.832 1.587-5.176 3.821-7.031 6.702-1.855 2.88-3.235 6.372-4.138 10.473-.904 4.102-1.355 8.667-1.355 13.697v19.848c0 4.688.378 9.058 1.135 13.11.757 4.053 1.978 7.593 3.662 10.62 1.685 3.028 3.894 5.409 6.629 7.142 2.734 1.733 6.054 2.6 9.96 2.6 3.663 0 6.751-.452 9.266-1.355 2.514-.903 4.565-2.32 6.152-4.248 1.587-1.929 2.795-4.394 3.626-7.397.83-3.003 1.416-6.629 1.757-10.877h13.55zm29.296-37.28c2.344-3.028 5.115-5.383 8.313-7.068 3.198-1.685 6.726-2.527 10.583-2.527 3.223 0 6.153.525 8.79 1.575 2.636 1.05 4.882 2.734 6.738 5.054 1.855 2.319 3.284 5.297 4.285 8.935 1 3.638 1.501 8.044 1.501 13.22V633h-12.89v-52.075c0-6.201-1.038-10.608-3.113-13.22-2.076-2.613-5.188-3.919-9.339-3.919-3.222 0-6.116 1.074-8.679 3.223-2.564 2.148-4.626 4.956-6.189 8.423V633h-12.964V520.5h12.964v41.382zM1882.935 633c-.44-.977-.794-2.234-1.062-3.772a56.294 56.294 0 0 1-.623-4.87 28.027 28.027 0 0 1-3.186 3.881 21.618 21.618 0 0 1-4.028 3.223c-1.49.928-3.1 1.66-4.834 2.197-1.734.537-3.577.806-5.53.806-3.467 0-6.604-.488-9.412-1.465-2.807-.977-5.212-2.441-7.214-4.395-2.002-1.953-3.54-4.357-4.614-7.214-1.075-2.856-1.612-6.189-1.612-9.997 0-3.81.66-7.325 1.978-10.547a22.752 22.752 0 0 1 5.86-8.35c2.587-2.344 5.834-4.187 9.74-5.53 3.907-1.342 8.448-2.014 13.623-2.014h9.01v-8.423c0-4.736-1.05-8.105-3.15-10.107-2.1-2.002-5.298-3.003-9.595-3.003-2.1 0-3.967.33-5.603.989-1.636.659-3.015 1.55-4.138 2.673a11.367 11.367 0 0 0-2.564 3.918 12.786 12.786 0 0 0-.878 4.725h-12.964c0-2.832.622-5.652 1.867-8.46 1.245-2.807 3.028-5.322 5.347-7.544 2.32-2.221 5.14-4.016 8.46-5.383 3.32-1.367 7.03-2.05 11.132-2.05 3.662 0 7.02.439 10.071 1.317 3.052.88 5.689 2.295 7.91 4.249 2.222 1.953 3.943 4.467 5.164 7.543 1.22 3.077 1.83 6.836 1.83 11.28v39.038c0 1.318.05 2.71.147 4.175a49.753 49.753 0 0 0 1.282 8.386 34.4 34.4 0 0 0 1.062 3.552V633h-13.476zm-17.286-10.327c1.807 0 3.516-.269 5.127-.806a19.202 19.202 0 0 0 4.395-2.087 17.697 17.697 0 0 0 3.479-2.93c1-1.099 1.794-2.234 2.38-3.406v-18.896h-6.811c-3.125 0-5.945.342-8.46 1.025-2.514.684-4.663 1.673-6.445 2.967s-3.15 2.893-4.102 4.797c-.952 1.904-1.428 4.077-1.428 6.518 0 2.393.244 4.407.733 6.043.488 1.636 1.22 2.954 2.197 3.955.976 1.001 2.21 1.721 3.699 2.16 1.489.44 3.234.66 5.236.66zM1927.98 633h-12.964v-79.248h12.964V633zm-13.697-100.269c0-2.197.61-4.052 1.831-5.566 1.221-1.514 3.052-2.27 5.493-2.27 2.442 0 4.285.769 5.53 2.307 1.245 1.538 1.868 3.381 1.868 5.53 0 2.197-.61 4.028-1.831 5.493-1.22 1.464-3.076 2.197-5.567 2.197-2.441 0-4.272-.733-5.493-2.197-1.22-1.465-1.83-3.296-1.83-5.494zm46.29 21.021l.366 8.57c2.392-3.175 5.212-5.64 8.459-7.398s6.848-2.637 10.803-2.637c3.223 0 6.153.525 8.79 1.575 2.636 1.05 4.882 2.734 6.738 5.054 1.855 2.319 3.283 5.297 4.284 8.935 1.001 3.638 1.502 8.044 1.502 13.22V633h-12.89l-.001-52.075c0-6.201-1.038-10.608-3.113-13.22-2.075-2.613-5.188-3.919-9.338-3.919-3.223 0-6.116 1.074-8.68 3.223-2.563 2.148-4.626 4.956-6.188 8.423V633h-12.964v-79.248h12.231z" fill="#F79F1F"/><path d="M1686.499 846V739.36h30.396c4.59 0 8.703.549 12.34 1.647 3.639 1.099 6.715 2.808 9.23 5.127 2.514 2.32 4.43 5.261 5.749 8.826 1.318 3.564 1.977 7.837 1.977 12.817s-1.245 9.375-3.735 13.184c-2.49 3.809-5.86 6.763-10.107 8.862 2.588.781 4.87 1.978 6.848 3.59a22.096 22.096 0 0 1 4.98 5.749c1.343 2.221 2.356 4.7 3.04 7.434.683 2.734 1.025 5.615 1.025 8.642 0 4.98-.708 9.387-2.124 13.22-1.416 3.834-3.43 7.056-6.042 9.668-2.613 2.613-5.774 4.578-9.485 5.896-3.711 1.319-7.837 1.978-12.378 1.978h-31.714zm13.403-49.878v38.379h18.31c2.638 0 4.981-.452 7.032-1.355 2.05-.903 3.784-2.173 5.2-3.809 1.416-1.635 2.49-3.637 3.223-6.005.732-2.369 1.099-5.018 1.099-7.947 0-2.93-.306-5.591-.916-7.984-.61-2.392-1.562-4.419-2.856-6.079-1.294-1.66-2.954-2.942-4.98-3.845-2.027-.903-4.456-1.355-7.288-1.355h-18.824zm0-11.28h17.212c2.246 0 4.322-.39 6.226-1.171a13.775 13.775 0 0 0 4.907-3.37c1.367-1.464 2.441-3.259 3.223-5.383.781-2.124 1.172-4.528 1.172-7.214 0-5.86-1.294-10.12-3.882-12.78-2.588-2.662-6.543-3.992-11.865-3.992h-16.993v33.91zM1780.47 846h-12.964v-79.248h12.964V846zm-13.697-100.269c0-2.197.61-4.052 1.832-5.566 1.22-1.514 3.051-2.27 5.493-2.27 2.441 0 4.284.769 5.53 2.307 1.245 1.538 1.867 3.381 1.867 5.53 0 2.197-.61 4.028-1.83 5.493-1.222 1.464-3.077 2.197-5.567 2.197-2.442 0-4.273-.733-5.493-2.197-1.221-1.465-1.832-3.296-1.832-5.494zm72.583 79.98c0-1.464-.268-2.794-.805-3.99-.537-1.197-1.416-2.345-2.637-3.443-1.22-1.099-2.795-2.185-4.724-3.26-1.929-1.074-4.31-2.246-7.141-3.515-3.662-1.514-6.946-3.003-9.851-4.468-2.906-1.465-5.347-3.088-7.324-4.87-1.978-1.783-3.492-3.833-4.541-6.153-1.05-2.32-1.575-5.066-1.575-8.24 0-3.125.598-6.054 1.794-8.789a21.139 21.139 0 0 1 5.09-7.14c2.198-2.027 4.835-3.626 7.91-4.798 3.077-1.172 6.52-1.758 10.328-1.758 4.004 0 7.593.61 10.767 1.831 3.173 1.22 5.859 2.918 8.056 5.09 2.197 2.173 3.882 4.725 5.054 7.654 1.172 2.93 1.758 6.08 1.758 9.449h-12.89c-.001-1.612-.282-3.186-.843-4.725a12.58 12.58 0 0 0-2.49-4.138c-1.1-1.22-2.43-2.197-3.992-2.93-1.563-.732-3.37-1.098-5.42-1.098-2.197 0-4.065.305-5.603.915-1.538.61-2.796 1.416-3.772 2.417a9.385 9.385 0 0 0-2.16 3.48 12.268 12.268 0 0 0-.697 4.101c0 1.465.208 2.722.623 3.772.415 1.05 1.135 2.039 2.16 2.966 1.026.928 2.43 1.856 4.212 2.783 1.782.928 4.065 2.002 6.848 3.223 4.004 1.563 7.556 3.137 10.657 4.724 3.1 1.587 5.7 3.32 7.8 5.2 2.1 1.88 3.687 4.017 4.761 6.41 1.074 2.392 1.611 5.175 1.611 8.349 0 3.467-.622 6.604-1.867 9.411-1.245 2.808-3.015 5.2-5.31 7.178-2.295 1.978-5.054 3.491-8.277 4.541-3.222 1.05-6.787 1.575-10.693 1.575-4.492 0-8.472-.696-11.939-2.088-3.466-1.391-6.372-3.247-8.715-5.566a23.136 23.136 0 0 1-5.31-8.02 25.482 25.482 0 0 1-1.795-9.448h13.037c.098 2.783.61 5.078 1.538 6.885.928 1.806 2.088 3.247 3.48 4.32a12.266 12.266 0 0 0 4.65 2.235 21.36 21.36 0 0 0 5.054.622c4.297 0 7.568-.964 9.814-2.893 2.246-1.929 3.37-4.529 3.37-7.8zm27.1-22.997c0-6.201.794-11.633 2.38-16.297 1.587-4.663 3.76-8.557 6.519-11.682 2.759-3.125 5.994-5.48 9.705-7.068 3.71-1.586 7.69-2.38 11.938-2.38 4.297 0 8.325.794 12.085 2.38 3.76 1.587 7.02 3.943 9.778 7.068 2.759 3.125 4.932 7.02 6.518 11.682 1.587 4.664 2.38 10.096 2.38 16.297v7.47c0 6.153-.793 11.56-2.38 16.224-1.586 4.663-3.76 8.557-6.518 11.682-2.759 3.125-5.994 5.469-9.705 7.031-3.71 1.563-7.715 2.344-12.011 2.344-4.297 0-8.313-.781-12.049-2.344-3.735-1.562-6.982-3.906-9.741-7.031-2.759-3.125-4.932-7.02-6.519-11.682-1.586-4.663-2.38-10.071-2.38-16.223v-7.471zm12.964 7.47c0 4.395.452 8.228 1.355 11.5.903 3.271 2.148 5.993 3.735 8.166 1.587 2.173 3.455 3.809 5.603 4.907 2.149 1.099 4.492 1.648 7.032 1.648 11.767 0 17.65-8.74 17.65-26.22v-7.471c0-4.346-.45-8.154-1.354-11.426-.903-3.271-2.148-6.006-3.735-8.203-1.587-2.197-3.467-3.857-5.64-4.98-2.173-1.124-4.529-1.685-7.068-1.685-2.49 0-4.81.561-6.958 1.684-2.148 1.124-4.004 2.784-5.566 4.981-1.563 2.197-2.796 4.932-3.7 8.203-.902 3.272-1.354 7.08-1.354 11.426v7.47zm77.27-43.432l.367 8.57c2.392-3.175 5.212-5.64 8.46-7.398 3.246-1.758 6.847-2.637 10.802-2.637 3.223 0 6.153.525 8.79 1.575 2.636 1.05 4.882 2.734 6.738 5.054 1.855 2.319 3.283 5.297 4.284 8.935 1.001 3.638 1.502 8.044 1.502 13.22V846h-12.89v-52.075c0-6.201-1.038-10.608-3.114-13.22-2.075-2.613-5.188-3.919-9.338-3.919-3.223 0-6.116 1.074-8.68 3.223-2.563 2.148-4.626 4.956-6.188 8.423V846h-12.964v-79.248h12.231z" fill="#D0011B"/><g stroke-linecap="square"><use fill="#000" filter="url(#E)" xlink:href="#F"/><use stroke="#D0011B" stroke-width="5" xlink:href="#F"/></g><g stroke-linecap="square"><use fill="#000" filter="url(#G)" xlink:href="#H"/><use stroke="#F79F1F" stroke-width="5" xlink:href="#H"/></g><g stroke-linecap="square"><use fill="#000" filter="url(#I)" xlink:href="#J"/><use stroke="#333" stroke-width="5" xlink:href="#J"/></g><g stroke-linecap="square"><use fill="#000" filter="url(#K)" xlink:href="#L"/><use stroke="#333" stroke-width="5" xlink:href="#L"/></g></g></svg>