<?xml version="1.0" encoding="UTF-8" standalone="no"?>
<svg
   xmlns:dc="http://purl.org/dc/elements/1.1/"
   xmlns:cc="http://creativecommons.org/ns#"
   xmlns:rdf="http://www.w3.org/1999/02/22-rdf-syntax-ns#"
   xmlns:svg="http://www.w3.org/2000/svg"
   xmlns="http://www.w3.org/2000/svg"
   xmlns:sodipodi="http://sodipodi.sourceforge.net/DTD/sodipodi-0.dtd"
   xmlns:inkscape="http://www.inkscape.org/namespaces/inkscape"
   viewBox="0 0 1000 1494.1821"
   height="1494.182"
   width="1000"
   xml:space="preserve"
   id="svg2"
   version="1.1"
   inkscape:version="0.91 r13725"
   sodipodi:docname="WWF.svg"><sodipodi:namedview
     pagecolor="#ffffff"
     bordercolor="#666666"
     borderopacity="1"
     objecttolerance="10"
     gridtolerance="10"
     guidetolerance="10"
     inkscape:pageopacity="0"
     inkscape:pageshadow="2"
     inkscape:window-width="1366"
     inkscape:window-height="705"
     id="namedview13"
     showgrid="false"
     inkscape:zoom="0.25"
     inkscape:cx="-28.694296"
     inkscape:cy="998.87791"
     inkscape:window-x="-8"
     inkscape:window-y="-8"
     inkscape:window-maximized="1"
     inkscape:current-layer="svg2" /><metadata
     id="metadata8"><rdf:RDF><cc:Work
         rdf:about=""><dc:format>image/svg+xml</dc:format><dc:type
           rdf:resource="http://purl.org/dc/dcmitype/StillImage" /><dc:title></dc:title></cc:Work></rdf:RDF></metadata><defs
     id="defs6" /><g
     id="g10"
     transform="matrix(7.9865877,0,0,-7.9865877,-271.80035,1521.3489)"
     style="fill:#000000"><g
       id="g12"
       transform="scale(0.1,0.1)"
       style="fill:#000000"><path
         d="m 777.359,375.258 c -11.902,0 -21.824,-5.953 -25.789,-15.871 L 701.969,230.43 698,216.539 l -3.965,13.891 -39.68,124.988 c 0,0 0,0 0,1.984 l 0,0 c -3.968,9.918 -13.886,17.856 -25.792,17.856 l -63.485,0 0,0 c -13.89,-1.985 -23.808,-11.906 -23.808,-27.778 0,-3.968 1.984,-7.933 1.984,-11.902 l 7.934,-27.777 -29.758,-77.371 -5.953,-13.891 -3.969,13.891 -37.695,124.988 c 0,0 0,0 0,1.984 l -1.981,0 c -1.984,9.918 -11.906,17.856 -23.809,17.856 l -63.488,0 0,0 c -13.887,-1.985 -25.789,-11.906 -25.789,-27.778 0,-3.968 1.984,-7.933 3.965,-11.902 L 455.957,53.8555 c 3.969,-11.9024 13.891,-19.8399 25.793,-19.8399 11.902,0 21.824,7.9375 25.793,17.8555 l 65.469,166.6519 5.953,15.872 3.969,-15.872 55.55,-164.6675 c 1.985,-11.9024 13.887,-19.8399 25.789,-19.8399 11.907,0 21.825,7.9375 25.793,17.8555 L 801.168,337.563 c 1.984,3.968 1.984,7.933 1.984,11.902 0,13.887 -11.906,25.793 -25.793,25.793"
         style="fill:#000000;fill-opacity:1;fill-rule:evenodd;stroke:none"
         id="path16"
         inkscape:connector-curvature="0" /><path
         d="m 1247.55,375.258 c -11.9,0 -21.82,-5.953 -25.79,-15.871 l -49.6,-128.957 -3.96,-13.891 -3.97,13.891 -39.68,124.988 c 0,0 0,0 0,1.984 l 0,0 c -3.97,9.918 -13.89,17.856 -25.79,17.856 l -63.49,0 0,0 c -13.89,-1.985 -23.81,-11.906 -23.81,-27.778 0,-3.968 0,-7.933 1.99,-11.902 l 7.93,-27.777 -29.755,-77.371 -5.953,-13.891 -3.965,13.891 -37.695,124.988 c 0,0 0,0 -1.985,1.984 l 0,0 c -1.984,9.918 -11.906,17.856 -23.808,17.856 l -63.485,0 0,0 c -13.886,-1.985 -25.793,-11.906 -25.793,-27.778 0,-3.968 1.985,-7.933 3.969,-11.902 L 926.156,53.8555 c 3.965,-11.9024 13.887,-19.8399 25.789,-19.8399 11.907,0 21.825,7.9375 25.793,17.8555 l 65.472,166.6519 5.95,15.872 3.97,-15.872 55.55,-164.6675 c 1.98,-11.9024 13.89,-19.8399 25.79,-19.8399 11.9,0 21.82,7.9375 25.79,17.8555 l 111.1,285.6919 c 1.98,3.968 1.98,7.933 1.98,11.902 0,13.887 -11.9,25.793 -25.79,25.793"
         style="fill:#000000;fill-opacity:1;fill-rule:evenodd;stroke:none"
         id="path18"
         inkscape:connector-curvature="0" /><path
         d="m 1553.08,375.258 -220.22,0 c -13.88,0 -23.8,-9.922 -23.8,-23.809 l 0,0 c 0,0 0,-21.824 0,-55.551 0,-79.359 0,-236.0894 0,-236.0894 l 0,0 0,0 C 1311.04,45.918 1320.96,36 1334.85,36 l 0,0 c 39.68,0 61.5,0 61.5,0 l 0,0 c 13.89,0 23.81,9.918 23.81,23.8086 0,-1.9844 0,136.8904 0,136.8904 l 91.26,0 c 11.9,0 23.81,11.906 23.81,23.809 0,13.887 -11.91,25.793 -23.81,25.793 -1.98,0 -91.26,0 -91.26,0 l 0,77.375 132.92,0 c 13.89,0 25.8,11.902 25.8,25.789 0,13.887 -11.91,25.793 -25.8,25.793"
         style="fill:#000000;fill-opacity:1;fill-rule:evenodd;stroke:none"
         id="path20"
         inkscape:connector-curvature="0" /><path
         d="m 1211.84,1307.71 c 39.68,-43.64 43.65,-178.55 144.83,-124.98 59.52,31.74 59.52,166.65 -21.82,216.24 -65.47,37.7 -101.18,-13.88 -124.99,-77.37 -1.98,-5.95 -1.98,-9.92 1.98,-13.89"
         style="fill:#000000;fill-opacity:1;fill-rule:evenodd;stroke:none"
         id="path22"
         inkscape:connector-curvature="0" /><path
         d="m 1055.11,1329.54 c -43.65,-33.73 -71.422,-130.94 -148.794,-97.22 -63.488,31.75 -69.437,154.75 39.676,212.29 75.388,35.71 113.088,-33.73 113.088,-107.14 0,-1.98 -1.99,-5.95 -3.97,-7.93"
         style="fill:#000000;fill-opacity:1;fill-rule:evenodd;stroke:none"
         id="path24"
         inkscape:connector-curvature="0" /><path
         d="m 1158.28,1085.51 c 41.66,3.97 31.74,43.65 0,51.58 -27.78,9.93 -69.44,15.87 -101.19,13.89 -53.56,0 -51.58,-41.66 -23.8,-49.6 21.82,-5.95 35.71,-7.93 53.56,-31.74 15.88,-31.75 7.94,9.92 71.43,15.87"
         style="fill:#000000;fill-opacity:1;fill-rule:evenodd;stroke:none"
         id="path26-2"
         inkscape:connector-curvature="0" /><path
         d="m 1354.69,1775.93 c 51.58,87.29 142.84,71.42 188.47,27.77 49.6,-47.61 59.52,-103.16 39.68,-140.86 -25.79,-51.58 -93.24,-113.09 -136.89,-53.57 -19.84,27.78 -59.52,59.52 -83.32,67.46 -33.74,15.87 -39.68,45.63 -7.94,99.2"
         style="fill:#000000;fill-opacity:1;fill-rule:evenodd;stroke:none"
         id="path28-8"
         inkscape:connector-curvature="0" /><path
         d="m 1563,1393.02 c -3.96,15.87 -11.9,13.89 -11.9,1.99 3.97,-158.72 -91.26,-329.34 -293.63,-331.32 -51.58,0 -35.71,-81.346 -130.94,-39.68 -67.45,45.63 -107.13,-45.631 -154.745,51.58 -11.902,27.78 -27.773,39.68 -47.613,45.63 -200.379,49.6 -263.867,325.37 -87.293,547.57 33.726,-21.82 47.613,-25.79 85.309,9.92 17.855,17.86 51.582,37.7 69.437,43.65 41.665,15.87 65.465,33.73 27.775,115.07 -17.36,38.32 -41.021,58.73 -66.22,67.45 l -67.383,0 c -20.637,-6.07 -39.274,-16.63 -52.887,-27.77 -51.582,-41.66 -85.308,-107.14 -21.824,-184.51 -178.555,-121.02 -210.297,-269.82 -206.332,-400.76 3.969,-136.89 -29.758,-124.99 13.891,-263.86 3.964,-11.91 -5.954,-11.91 -11.907,-7.94 -186.492,119.04 -287.672,484.08 3.969,684.46 5.953,5.95 3.969,13.89 -19.84,0 -251.961,-132.92 -275.769,-390.84 -234.105,-565.42 19.84,-83.33 -9.922,-99.2 21.824,-210.303 75.391,-230.14 138.875,-249.976 230.137,-255.929 164.668,0 51.582,91.261 59.519,204.347 0,7.938 7.938,9.918 11.903,-3.968 91.261,-202.364 154.75,-386.872 392.815,-369.016 136.9,17.855 61.51,85.309 51.59,124.988 -101.18,335.289 144.83,414.651 75.39,87.297 -45.63,-188.476 99.2,-168.637 202.36,-101.183 105.15,67.453 236.09,525.747 160.7,777.707 z M 1162.24,994.25 c -23.8,-59.52 -140.86,-39.68 -144.83,19.84 0,1.98 3.97,1.98 3.97,0 53.57,-11.91 103.17,-17.856 136.9,-17.856 1.98,0 3.96,1.981 3.96,-1.984"
         style="fill:#000000;fill-opacity:1;fill-rule:evenodd;stroke:none"
         id="path30-7"
         inkscape:connector-curvature="0" /><path
         d="m 648.402,569.684 c 0,-31.746 -25.793,-57.536 -57.535,-57.536 -33.726,0 -59.519,25.79 -59.519,57.536 0,31.742 25.793,59.515 59.519,59.515 31.742,0 57.535,-27.773 57.535,-59.515 z m -57.535,69.437 c -39.679,0 -71.422,-29.762 -71.422,-69.437 0,-37.696 31.743,-69.438 71.422,-69.438 37.696,0 69.438,31.742 69.438,69.438 0,39.675 -31.742,69.437 -69.438,69.437"
         style="fill:#000000;fill-opacity:1;fill-rule:evenodd;stroke:none"
         id="path32-2"
         inkscape:connector-curvature="0" /><path
         d="m 610.707,559.762 c -1.984,-9.918 -9.918,-15.871 -17.855,-15.871 -13.887,0 -23.809,11.902 -23.809,25.793 0,13.886 7.937,25.789 21.824,25.789 9.922,0 17.856,-5.953 19.84,-13.887 l 9.922,0 c -1.984,15.871 -13.891,23.809 -29.762,23.809 -19.84,0 -33.726,-15.875 -33.726,-35.711 0,-19.84 13.886,-35.711 35.711,-35.711 13.886,0 23.808,9.918 27.777,25.789 l -9.922,0"
         style="fill:#000000;fill-opacity:1;fill-rule:evenodd;stroke:none"
         id="path34-2"
         inkscape:connector-curvature="0" /><path
         d="m 1566.97,478.422 c 0,-31.742 -25.79,-57.535 -57.53,-57.535 -33.73,0 -59.52,25.793 -59.52,57.535 0,31.742 25.79,59.516 59.52,59.516 31.74,0 57.53,-27.774 57.53,-59.516 z m -57.53,69.437 c -39.68,0 -71.42,-29.761 -71.42,-69.437 0,-37.695 31.74,-69.438 71.42,-69.438 37.69,0 69.44,31.743 69.44,69.438 0,39.676 -31.75,69.437 -69.44,69.437"
         style="fill:#000000;fill-opacity:1;fill-rule:evenodd;stroke:none"
         id="path36"
         inkscape:connector-curvature="0" /><path
         d="m 1497.53,474.453 9.92,0 17.86,-29.758 11.9,0 -19.84,29.758 c 9.92,1.985 17.86,5.953 17.86,17.856 0,13.886 -7.94,19.839 -23.81,19.839 l -23.81,0 0,-67.453 9.92,0 z m 0,7.938 0,19.839 11.91,0 c 7.93,0 15.87,0 15.87,-7.937 0,-11.902 -7.94,-11.902 -15.87,-11.902 l -11.91,0"
         style="fill:#000000;fill-opacity:1;fill-rule:evenodd;stroke:none"
         id="path38"
         inkscape:connector-curvature="0" /></g></g></svg>