<svg width="1310" height="825" xmlns="http://www.w3.org/2000/svg" xmlns:xlink="http://www.w3.org/1999/xlink"><defs><path id="a" d="M50 0h350v500H50z"/><path id="b" d="M0 50h350v500H0z"/><path id="c" d="M50 125h60v100H50z"/><filter x="-5%" y="-3%" width="110%" height="106%" filterUnits="objectBoundingBox" id="d"><feGaussianBlur stdDeviation="1.5" in="SourceAlpha" result="shadowBlurInner1"/><feOffset dx="3" dy="3" in="shadowBlurInner1" result="shadowOffsetInner1"/><feComposite in="shadowOffsetInner1" in2="SourceAlpha" operator="arithmetic" k2="-1" k3="1" result="shadowInnerInner1"/><feColorMatrix values="0 0 0 0 0 0 0 0 0 0 0 0 0 0 0 0 0 0 0.5 0" in="shadowInnerInner1"/></filter><path id="e" d="M240 125h60v100h-60z"/><filter x="-5%" y="-3%" width="110%" height="106%" filterUnits="objectBoundingBox" id="f"><feGaussianBlur stdDeviation="1.5" in="SourceAlpha" result="shadowBlurInner1"/><feOffset dx="3" dy="3" in="shadowBlurInner1" result="shadowOffsetInner1"/><feComposite in="shadowOffsetInner1" in2="SourceAlpha" operator="arithmetic" k2="-1" k3="1" result="shadowInnerInner1"/><feColorMatrix values="0 0 0 0 0 0 0 0 0 0 0 0 0 0 0 0 0 0 0.5 0" in="shadowInnerInner1"/></filter><path id="g" d="M50 125h60v100H50z"/><filter x="-5%" y="-3%" width="110%" height="106%" filterUnits="objectBoundingBox" id="h"><feGaussianBlur stdDeviation="1.5" in="SourceAlpha" result="shadowBlurInner1"/><feOffset dx="3" dy="3" in="shadowBlurInner1" result="shadowOffsetInner1"/><feComposite in="shadowOffsetInner1" in2="SourceAlpha" operator="arithmetic" k2="-1" k3="1" result="shadowInnerInner1"/><feColorMatrix values="0 0 0 0 0 0 0 0 0 0 0 0 0 0 0 0 0 0 0.5 0" in="shadowInnerInner1"/></filter><path id="i" d="M240 125h60v100h-60z"/><filter x="-5%" y="-3%" width="110%" height="106%" filterUnits="objectBoundingBox" id="j"><feGaussianBlur stdDeviation="1.5" in="SourceAlpha" result="shadowBlurInner1"/><feOffset dx="3" dy="3" in="shadowBlurInner1" result="shadowOffsetInner1"/><feComposite in="shadowOffsetInner1" in2="SourceAlpha" operator="arithmetic" k2="-1" k3="1" result="shadowInnerInner1"/><feColorMatrix values="0 0 0 0 0 0 0 0 0 0 0 0 0 0 0 0 0 0 0.5 0" in="shadowInnerInner1"/></filter><path id="k" d="M-3.559 34.963h108.167v27.016H-3.559z"/><path id="l" d="M-3.559 52.974h108.167V79.99H-3.559z"/><path d="M1.832 95.167L1.83 77.151" id="m"/><path d="M79.162 18.724L79.159.713" id="n"/><path id="o" d="M7.002 9.139h36.056v27.016H7.002z"/><path id="p" d="M7.002 27.15h36.056v27.016H7.002z"/><path id="q" d="M7.002 9.139h36.056v27.016H7.002z"/><path id="r" d="M7.002 27.15h36.056v27.016H7.002z"/><path id="s" d="M-19.9 73.951h216.334v27.016H-19.9z"/><path id="t" d="M-19.4 92.828h216.334v27.016H-19.4z"/><path id="u" d="M-3.559 34.963h108.167v27.016H-3.559z"/><path id="v" d="M-3.559 52.974h108.167V79.99H-3.559z"/><path d="M1.832 95.167L1.83 77.151" id="w"/><path d="M79.162 18.724L79.159.713" id="x"/><path id="y" d="M7.002 9.139h36.056v27.016H7.002z"/><path id="z" d="M7.002 27.15h36.056v27.016H7.002z"/><path id="A" d="M7.002 9.139h36.056v27.016H7.002z"/><path id="B" d="M7.002 27.15h36.056v27.016H7.002z"/><path id="C" d="M-19.9 73.951h216.334v27.016H-19.9z"/><path id="D" d="M-19.4 92.828h216.334v27.016H-19.4z"/></defs><g fill="none" fill-rule="evenodd"><path stroke="#FFC674" fill="#333" d="M506.343 207.852H297.776L164.74 105.3 244.65 1 51 105.3l184.564 184.565h270.779z"/><path stroke="#FFC674" fill="#333" d="M456.343 257.852H247.776L114.74 155.3 194.65 51 1 155.3l184.564 184.565h270.779z"/><path d="M456.452 339.966l50.064-49.926M456.425 257.963l49.764-50.118M193.774 51.744l50.114-50.159M.51 155.504l50.082-50.011M115.29 155.486L165 105.211M248.124 257.666l49.833-49.922" stroke="#FFC674"/><path fill="#333" d="M3.224 153.534l63.466-34.131-13.466-14.706-2.31 1.205z"/><path fill="#D8D8D8" d="M456.841 338.873l49.006-48.772v-.779h-49.006z"/><g><g transform="translate(456 185)"><use fill="#795548" xlink:href="#a"/><path stroke="#FFC674" d="M50.5.5h349v499h-349z"/></g><g transform="translate(456 185)"><use fill="#795548" xlink:href="#b"/><path stroke="#FFC674" d="M.5 50.5h349v499H.5z"/></g><path d="M805.605 734.664l50.093-50.058M805.587 235.281l50.003-49.635M456.44 235.419l49.884-50.042" stroke="#FFC674"/><path fill="#795548" d="M457.526 235.02h50.065v-49.005h-1.509zM806.01 733.55l48.988-48.958.003-.892h-49.008z"/><g transform="translate(456 185)"><use fill="#F79F1F" xlink:href="#c"/><use fill="#000" filter="url(#d)" xlink:href="#c"/><path stroke="#979797" d="M50.5 125.5h59v99h-59z"/></g><g transform="translate(456 185)"><use fill="#F79F1F" xlink:href="#e"/><use fill="#000" filter="url(#f)" xlink:href="#e"/><path stroke="#979797" d="M240.5 125.5h59v99h-59z"/></g><g transform="translate(456 185)"><use fill="#F79F1F" xlink:href="#g"/><use fill="#000" filter="url(#h)" xlink:href="#g"/><path stroke="#FFC674" d="M50.5 125.5h59v99h-59z"/></g><g transform="translate(456 185)"><use fill="#F79F1F" xlink:href="#i"/><use fill="#000" filter="url(#j)" xlink:href="#i"/><path stroke="#FFC674" d="M240.5 125.5h59v99h-59z"/></g></g><g><g transform="rotate(-15 2578.077 -1445.024)"><use fill="#F79F1F" xlink:href="#k"/><path stroke="#FFC674" d="M-4.059 34.463h109.167v28.016H-4.059z"/></g><g transform="rotate(-15 2564.41 -1394.018)"><use fill="#F79F1F" xlink:href="#l"/><path stroke="#FFC674" d="M-4.059 52.474h109.167V80.49H-4.059z"/></g><use fill="#D8D8D8" xlink:href="#m" transform="rotate(30 -838.894 1232.128)"/><use fill="#D8D8D8" xlink:href="#n" transform="rotate(30 -838.894 1232.128)"/><path fill="#F79F1F" d="M472.49 663.539l-13.889 3.707 8.31-14.41.897-.218zM570.782 665.797l8.321-14.427-.28-.977-11.395 2.829z"/><path d="M570.718 666.867l9.005-15.59" stroke="#FFC674"/><g><g transform="rotate(75 -145.131 617.325)"><use fill="#F79F1F" xlink:href="#o"/><path stroke="#FFC674" d="M6.502 8.639h37.056v28.016H6.502z"/></g><g transform="rotate(75 -148.062 628.262)"><use fill="#F79F1F" xlink:href="#p"/><path stroke="#FFC674" d="M6.502 26.65h37.056v28.016H6.502z"/></g><path d="M445.806 629.015l9.016-15.62" stroke="#FFC674"/><path fill="#F79F1F" d="M455.021 614.045l-8.301 14.361 11.996-3.215-3.026-11.358z"/><path d="M472.786 622.313l8.985-15.563M491.849 642.146l-9.033 15.613" stroke="#FFC674"/><path fill="#F79F1F" d="M482.89 656.656l-3.223-12.106 11.365-2.875.149.65z"/></g><g><g transform="rotate(75 -21.785 712.662)"><use fill="#F79F1F" xlink:href="#q"/><path stroke="#FFC674" d="M6.502 8.639h37.056v28.016H6.502z"/></g><g transform="rotate(75 -24.715 723.599)"><use fill="#F79F1F" xlink:href="#r"/><path stroke="#FFC674" d="M6.502 26.65h37.056v28.016H6.502z"/></g><path d="M629.317 580.533l9.015-15.619" stroke="#FFC674"/><path fill="#F79F1F" d="M638.532 565.563l-8.302 14.362 11.997-3.216-3.026-11.357z"/><path d="M656.296 573.832l8.986-15.563M675.359 593.664l-9.032 15.613" stroke="#FFC674"/><path fill="#F79F1F" d="M666.4 608.175l-3.222-12.107 11.364-2.875.15.651z"/></g><g><g transform="rotate(-15 2146.879 -1444.827)"><use fill="#F79F1F" xlink:href="#s"/><path stroke="#FFC674" d="M-20.4 73.451h217.334v28.016H-20.4z"/></g><g transform="rotate(-15 2133.97 -1390.99)"><use fill="#F79F1F" xlink:href="#t"/><path stroke="#FFC674" d="M-19.9 92.328h217.334v28.016H-19.9z"/></g><path d="M437.207 599.151l9.044-16.556M647.053 543.444l9.448-17.202M654.769 570.168l8.998-16.605" stroke="#FFC674"/><path fill="#F79F1F" d="M654.82 569.067l8.405-15.115-.263-.894-11.623 2.985zM446.588 582.998l-8.486 15.542 12.59-3.37-2.268-12.534z"/></g><g><g transform="rotate(165 358.018 347.14)"><use fill="#F79F1F" xlink:href="#u"/><path stroke="#FFC674" d="M-4.059 34.463h109.167v28.016H-4.059z"/></g><g transform="rotate(165 364.733 348.939)"><use fill="#F79F1F" xlink:href="#v"/><path stroke="#FFC674" d="M-4.059 52.474h109.167V80.49H-4.059z"/></g><use fill="#D8D8D8" xlink:href="#w" transform="rotate(-150 459.432 210.913)"/><use fill="#D8D8D8" xlink:href="#x" transform="rotate(-150 459.432 210.913)"/><path fill="#F79F1F" d="M783.04 544.268l13.887-3.707-8.31 14.41-.897.218zM684.747 542.01l-8.322 14.427.28.976 11.395-2.829z"/><path d="M684.81 540.94l-9.004 15.59" stroke="#FFC674"/><g><g transform="rotate(-105 617.465 10.84)"><use fill="#F79F1F" xlink:href="#y"/><path stroke="#FFC674" d="M6.502 8.639h37.056v28.016H6.502z"/></g><g transform="rotate(-105 609.073 8.59)"><use fill="#F79F1F" xlink:href="#z"/><path stroke="#FFC674" d="M6.502 26.65h37.056v28.016H6.502z"/></g><path d="M809.722 578.791l-9.015 15.62" stroke="#FFC674"/><path fill="#F79F1F" d="M800.507 593.762l8.302-14.362-11.997 3.216 3.026 11.357z"/><path d="M782.743 585.493l-8.985 15.563M763.68 565.66l9.032-15.612" stroke="#FFC674"/><path fill="#F79F1F" d="M772.638 551.15l3.223 12.107-11.364 2.875-.15-.651z"/></g><g><g transform="rotate(-105 544.31 105.486)"><use fill="#F79F1F" xlink:href="#A"/><path stroke="#FFC674" d="M6.502 8.639h37.056v28.016H6.502z"/></g><g transform="rotate(-105 535.919 103.238)"><use fill="#F79F1F" xlink:href="#B"/><path stroke="#FFC674" d="M6.502 26.65h37.056v28.016H6.502z"/></g><path d="M626.212 627.273l-9.015 15.62" stroke="#FFC674"/><path fill="#F79F1F" d="M616.997 642.243l8.302-14.362-11.997 3.216 3.026 11.358z"/><path d="M599.232 633.975l-8.985 15.563M580.17 614.142l9.032-15.613" stroke="#FFC674"/><path fill="#F79F1F" d="M589.128 599.631l3.223 12.107-11.365 2.875-.149-.65z"/></g><g><g transform="rotate(165 358.044 403.908)"><use fill="#F79F1F" xlink:href="#C"/><path stroke="#FFC674" d="M-20.4 73.451h217.334v28.016H-20.4z"/></g><g transform="rotate(165 365.132 405.607)"><use fill="#F79F1F" xlink:href="#D"/><path stroke="#FFC674" d="M-19.9 92.328h217.334v28.016H-19.9z"/></g><path d="M818.322 608.655l-9.044 16.557M608.476 664.362l-9.448 17.202M600.76 637.638l-8.999 16.605" stroke="#FFC674"/><path fill="#F79F1F" d="M600.708 638.739l-8.404 15.115.263.895 11.623-2.985zM808.941 624.808l8.486-15.542-12.59 3.37 2.267 12.535z"/></g></g></g><g><g stroke="#FFC674"><path fill="#333" d="M854.657 207.852h208.567L1196.26 105.3 1116.35 1 1310 105.3l-184.564 184.565H854.657z"/><path fill="#333" d="M804.657 257.852h208.567L1146.26 155.3 1066.35 51 1260 155.3l-184.564 184.565H804.657z"/><path d="M1063.91 207.822l-50.277 49.34"/></g><path d="M804.509 257.706l50.005-50.003M1064.908 49.824L1114.626.08l1.962 1.146" stroke="#FFC674"/><path fill="#333" d="M805.52 257.353h50.56v-49.005h-1.546zM1065.474 49.966l130.988 70.555 49.182-49.331L1114.684.66z"/></g></g></svg>