<?xml version="1.0" encoding="UTF-8"?>
<svg width="252px" height="252px" viewBox="0 0 252 252" version="1.1" xmlns="http://www.w3.org/2000/svg" xmlns:xlink="http://www.w3.org/1999/xlink">
    <!-- Generator: Sketch 43.2 (39069) - http://www.bohemiancoding.com/sketch -->
    <title>earth</title>
    <desc>Created with Sketch.</desc>
    <defs>
        <circle id="path-1" cx="114.545455" cy="114.545455" r="114.545455"></circle>
    </defs>
    <g id="Page-1" stroke="none" stroke-width="1" fill="none" fill-rule="evenodd">
        <g id="Desktop-HD" transform="translate(-594.000000, -98.000000)">
            <g id="earth-3" transform="translate(594.000000, 98.000000)">
                <circle id="Oval" fill-opacity="0.15" fill="#3498DB" cx="126" cy="126" r="126"></circle>
                <circle id="Oval" fill="#3498DB" cx="126" cy="126" r="114.545455"></circle>
                <g id="Rectangle-2-Copy-+-Rectangle-2-Copy-2-+-Rectangle-2-Copy-3-Mask" stroke-width="1" transform="translate(11.454545, 11.454545)">
                    <mask id="mask-2" fill="white">
                        <use xlink:href="#path-1"></use>
                    </mask>
                    <g id="Mask"></g>
                    <rect id="Rectangle-2-Copy" fill="#2ECC71" mask="url(#mask-2)" x="121.418182" y="22.1454545" width="118.363636" height="38.1818182" rx="19.0909091"></rect>
                    <path d="M33.3286077,95.1334711 C25.0435992,95.1334711 18.3272727,88.4173305 18.3272727,80.1379334 L18.3272727,82.9591741 C18.3272727,74.6773673 25.0456847,67.9636364 33.3180207,67.9636364 L114.063797,67.9636364 C122.342959,67.9636364 129.054545,74.6797769 129.054545,82.9591741 L129.054545,80.1379334 C129.054545,88.4197402 122.3291,95.1334711 114.053606,95.1334711 L85.553797,95.1334711 C78.994212,95.1334711 73.6909091,100.430849 73.6909091,106.965496 C73.6909091,113.50158 79.0021049,118.797521 85.553797,118.797521 L114.053606,118.797521 C122.338396,118.797521 129.054545,125.517525 129.054545,133.787552 L129.054545,130.100877 C129.054545,138.379643 122.336134,145.090909 114.063797,145.090909 L33.3180207,145.090909 C25.0388592,145.090909 18.3272727,138.370905 18.3272727,130.100877 L18.3272727,133.787552 C18.3272727,125.508787 25.0511275,118.797521 33.3286077,118.797521 L35.4643849,118.797521 C42.0239698,118.797521 47.3272727,113.500143 47.3272727,106.965496 C47.3272727,100.429412 42.0160769,95.1334711 35.4643849,95.1334711 L33.3286077,95.1334711 Z" id="Combined-Shape" fill="#2ECC71" mask="url(#mask-2)"></path>
                    <path d="M181.526901,67.9289256 C178.273647,67.9289256 175.636364,65.3071726 175.636364,62.0714876 C175.636364,58.8365139 178.269728,56.2140496 181.526901,56.2140496 L196.24825,56.2140496 C200.055406,56.2140496 203.127273,53.1369176 203.127273,49.3410829 L203.127273,49.6366031 C203.127273,45.8409995 200.046973,42.7636364 196.24723,42.7636364 L155.025497,42.7636364 C151.219329,42.7636364 148.145455,45.8407684 148.145455,49.6366031 L148.145455,49.3410829 C148.145455,53.1366865 151.2207,56.2140496 155.014207,56.2140496 L156.654917,56.2140496 C159.908171,56.2140496 162.545455,58.8358026 162.545455,62.0714876 C162.545455,65.3064613 159.91209,67.9289256 156.654917,67.9289256 C156.654917,67.9289256 154.371871,67.9512997 154.060064,67.9945854 C146.494115,68.4864831 140.509091,74.7805582 140.509091,82.4727273 C140.509091,90.4876388 147.003672,96.9818182 155.015143,96.9818182 L222.984857,96.9818182 C230.995975,96.9818182 237.490909,90.4858769 237.490909,82.4727273 C237.490909,74.4578158 230.996328,67.9636364 222.984857,67.9636364 L196.943998,67.9636364 C196.715203,67.9406816 181.526901,67.9289256 181.526901,67.9289256 Z" id="Combined-Shape" fill="#ECF0F1" mask="url(#mask-2)"></path>
                    <rect id="Rectangle-2-Copy-4" fill="#2ECC71" mask="url(#mask-2)" x="143.563636" y="119.890909" width="124.472727" height="29.0181818" rx="14.5090909"></rect>
                    <rect id="Rectangle-2-Copy-5" fill="#2ECC71" mask="url(#mask-2)" x="-21.3818182" y="7.63636364" width="124.472727" height="29.0181818" rx="14.5090909"></rect>
                    <rect id="Rectangle-2-Copy-2" fill="#2ECC71" mask="url(#mask-2)" x="114.545455" y="171.818182" width="118.363636" height="29.0181818" rx="14.5090909"></rect>
                    <rect id="Rectangle-2-Copy-3" fill="#2ECC71" mask="url(#mask-2)" x="-21.3818182" y="200.836364" width="118.363636" height="20.6181818" rx="10.3090909"></rect>
                    <rect id="Rectangle-2-Copy-4" fill="#ECF0F1" mask="url(#mask-2)" x="68.7272727" y="22.1454545" width="69.4909091" height="29.0181818" rx="14.5090909"></rect>
                    <rect id="Rectangle-2-Copy-6" fill="#ECF0F1" mask="url(#mask-2)" x="6.10909091" y="76.3636364" width="96.9818182" height="20.6181818" rx="10.3090909"></rect>
                    <path d="M64.3094316,183.428926 C67.2915811,183.428926 69.7090909,185.840938 69.7090909,188.817769 C69.7090909,191.793944 67.2951737,194.206612 64.3094316,194.206612 L62.6168739,194.206612 C59.2372716,194.206612 56.5090909,196.942326 56.5090909,200.317 L56.5090909,200.07143 C56.5090909,203.449474 59.2421729,206.181818 62.6136004,206.181818 L100.804581,206.181818 C104.181498,206.181818 106.909091,203.446104 106.909091,200.07143 L106.909091,200.317 C106.909091,196.938956 104.176989,194.206612 100.806771,194.206612 L87.1087502,194.206612 C84.1266007,194.206612 81.7090909,191.794599 81.7090909,188.817769 C81.7090909,185.841593 84.1230081,183.428926 87.1087502,183.428926 L104.235594,183.272727 C109.933064,183.272727 114.545455,178.65719 114.545455,172.963636 C114.545455,167.268831 109.929573,162.654545 104.235594,162.654545 L27.8734972,162.654545 C22.1760274,162.654545 17.5636364,167.270083 17.5636364,172.963636 C17.5636364,178.658442 22.1795183,183.272727 27.8734972,183.272727 L64.3094316,183.428926 Z" id="Combined-Shape" fill="#ECF0F1" mask="url(#mask-2)"></path>
                    <rect id="Rectangle-2-Copy-8" fill="#ECF0F1" mask="url(#mask-2)" x="151.963636" y="151.963636" width="58.0363636" height="20.6181818" rx="10.3090909"></rect>
                    <rect id="Rectangle-2-Copy-9" fill="#ECF0F1" mask="url(#mask-2)" x="138.218182" y="186.327273" width="30.5454545" height="15.2727273" rx="7.63636364"></rect>
                </g>
            </g>
        </g>
    </g>
</svg>