<?xml version="1.0" encoding="UTF-8"?>
<svg width="241px" height="188px" viewBox="0 0 241 188" version="1.1" xmlns="http://www.w3.org/2000/svg" xmlns:xlink="http://www.w3.org/1999/xlink">
    <!-- Generator: Sketch 43.2 (39069) - http://www.bohemiancoding.com/sketch -->
    <title>meteor</title>
    <desc>Created with Sketch.</desc>
    <defs>
        <path d="M52.1266483,59.3989347 L52.1266483,127.365252 C52.1266483,129.58506 53.9134893,131.369659 56.1176693,131.369659 L53.9274772,131.369659 C56.1176693,131.369659 57.9184982,129.578539 57.9184982,127.369079 L57.9184982,81.7067914 C57.9184982,79.4916903 59.7053391,77.7062113 61.9095191,77.7062113 L59.719327,77.7062113 C61.9095191,77.7062113 63.710348,79.4944909 63.710348,81.7004455 L63.710348,246.005555 C63.710348,263.533111 49.4483008,277.742003 31.855174,277.742003 C14.2620472,277.742003 0,263.533111 0,246.005555 L0,56.6947912 C0,54.491935 1.78684094,52.7017374 3.99102094,52.7017374 L1.80082887,52.7017374 C3.99102094,52.7017374 5.79184982,54.4968231 5.79184982,56.7111734 L5.79184982,81.3904596 C5.79184982,83.6186798 7.57869076,85.3998956 9.78287076,85.3998956 L7.59267869,85.3998956 C9.78287076,85.3998956 11.5836996,83.6084297 11.5836996,81.3985445 L11.5836996,42.4697726 C11.5836996,40.2508826 13.3705406,38.4684215 15.5747206,38.4684215 L13.3845285,38.4684215 C15.5747206,38.4684215 17.3755494,40.2581631 17.3755494,42.4659212 L17.3755494,53.3204482 C17.3755494,55.5276366 19.1623904,57.317948 21.3665704,57.317948 L19.1763783,57.317948 C21.3665704,57.317948 23.1673993,55.524015 23.1673993,53.3110865 L23.1673993,48.4378882 C23.1673993,46.222898 24.9542402,44.4310268 27.1584202,44.4310268 L24.9682281,44.4310268 C27.1584202,44.4310268 28.9592491,46.2247931 28.9592491,48.4375159 L28.9592491,103.705091 C28.9592491,105.91965 30.74609,107.71158 32.95027,107.71158 L30.7600779,107.71158 C32.95027,107.71158 34.7510989,105.919213 34.7510989,103.708217 L34.7510989,79.9784954 C34.7510989,77.7723528 36.5379398,75.9751324 38.7421198,75.9751324 L36.5519278,75.9751324 C38.7421198,75.9751324 40.5429487,77.7689464 40.5429487,79.9817282 L40.5429487,90.4333789 C40.5429487,92.6527105 42.3297896,94.4399747 44.5339696,94.4399747 L42.3437776,94.4399747 C44.5339696,94.4399747 46.3347985,92.6513277 46.3347985,90.4449197 L46.3347985,59.3895819 C46.3347985,57.1865546 48.1216395,55.3945269 50.3258195,55.3945269 L48.1356274,55.3945269 C50.3258195,55.3945269 52.1266483,57.1873613 52.1266483,59.3989347 Z M0,2.89857674 C0,1.29773701 1.29980415,0 2.89592491,0 C4.49530007,0 5.79184982,1.29486095 5.79184982,2.89857674 L5.79184982,40.7630816 C5.79184982,42.3639213 4.49204566,43.6616584 2.89592491,43.6616584 C1.29654974,43.6616584 0,42.3667974 0,40.7630816 L0,2.89857674 Z M34.7510989,41.3678112 C34.7510989,39.7665225 36.050903,38.4684215 37.6470238,38.4684215 C39.246399,38.4684215 40.5429487,39.7596127 40.5429487,41.3678112 L40.5429487,66.5361109 C40.5429487,68.1373997 39.2431446,69.4355007 37.6470238,69.4355007 C36.0476486,69.4355007 34.7510989,68.1443095 34.7510989,66.5361109 L34.7510989,41.3678112 Z M57.9184982,46.5583539 C57.9184982,44.9585531 59.2183023,43.6616584 60.8144231,43.6616584 C62.4137982,43.6616584 63.710348,44.9556161 63.710348,46.5583539 L63.710348,70.0009632 C63.710348,71.6007639 62.4105438,72.8976587 60.8144231,72.8976587 C59.2150479,72.8976587 57.9184982,71.6037009 57.9184982,70.0009632 L57.9184982,46.5583539 Z M23.1673993,12.1291167 C23.1673993,10.5293159 24.4672034,9.23242115 26.0633242,9.23242115 C27.6626993,9.23242115 28.9592491,10.5263789 28.9592491,12.1291167 L28.9592491,35.5717259 C28.9592491,37.1715267 27.6594449,38.4684215 26.0633242,38.4684215 C24.463949,38.4684215 23.1673993,37.1744637 23.1673993,35.5717259 L23.1673993,12.1291167 Z" id="path-1"></path>
        <filter x="-7.1%" y="-1.6%" width="114.1%" height="103.2%" filterUnits="objectBoundingBox" id="filter-2">
            <feMorphology radius="1.5" operator="dilate" in="SourceAlpha" result="shadowSpreadOuter1"></feMorphology>
            <feOffset dx="0" dy="0" in="shadowSpreadOuter1" result="shadowOffsetOuter1"></feOffset>
            <feColorMatrix values="0 0 0 0 0.905882353   0 0 0 0 0.298039216   0 0 0 0 0.235294118  0 0 0 0.3 0" type="matrix" in="shadowOffsetOuter1"></feColorMatrix>
        </filter>
    </defs>
    <g id="Page-1" stroke="none" stroke-width="1" fill="none" fill-rule="evenodd">
        <g id="Desktop-HD" transform="translate(-80.000000, -195.000000)">
            <g id="Meteor" transform="translate(193.277321, 284.212813) rotate(240.000000) translate(-193.277321, -284.212813) translate(161.277321, 145.212813)">
                <g id="Group-2">
                    <g id="Combined-Shape">
                        <use fill="black" fill-opacity="1" filter="url(#filter-2)" xlink:href="#path-1"></use>
                        <use fill="#E74C3C" fill-rule="evenodd" xlink:href="#path-1"></use>
                    </g>
                    <path d="M57.9846492,183.839979 C57.9846492,183.839979 57.9184982,245.324688 57.9184982,246.005555 C57.9184982,260.346283 46.2495505,271.97174 31.855174,271.97174 C17.4607975,271.97174 5.79184982,260.346283 5.79184982,246.005555 C5.79184982,245.324176 5.87259655,165.767106 5.87259655,165.767106 C5.87484789,163.547759 7.66349941,161.762901 9.86767942,161.762326 L7.67748734,161.762897 C9.86767942,161.762326 11.6532473,163.552674 11.634422,165.76176 L11.5682034,173.532272 C11.5494026,175.738474 13.320958,177.532049 15.525138,177.531893 L13.3349459,177.532048 C15.525138,177.531893 17.3343766,175.738484 17.3447505,173.52636 L17.5263831,134.79515 C17.536775,132.579204 19.3320077,130.790636 21.5361877,130.791735 L19.3459956,130.790643 C21.5361877,130.791735 23.3370166,132.586188 23.3370166,134.79865 L23.3370166,166.846535 C23.3370166,169.053436 25.1238575,170.853173 27.3280375,170.853939 L25.1378454,170.853178 C27.3280375,170.853939 29.1116249,169.062127 29.0903564,166.851044 L28.8985939,146.915299 C28.8773063,144.702233 30.6469248,142.911288 32.8511048,142.910681 L30.6609128,142.911284 C32.8511048,142.910681 34.6727465,144.700131 34.6984204,146.90814 L34.8246469,157.763901 C34.8503142,159.971341 36.6579746,161.761194 38.8621546,161.760379 L36.6719625,161.761189 C38.8621546,161.760379 40.6552098,159.968584 40.6456206,157.759115 L40.545955,134.79496 C40.5363985,132.593034 42.3154331,130.793829 44.5196131,130.793171 L42.329421,130.793824 C44.5196131,130.793171 46.3167687,132.580127 46.3122375,134.785113 L46.1942552,192.197952 C46.1897151,194.407282 47.9728917,196.189975 50.1770717,196.18941 L47.9868796,196.189971 C50.1770717,196.18941 52.0019081,194.398556 52.0315229,192.189993 L52.1434781,183.840783 C52.1730152,181.638017 53.9839414,179.841223 56.1881214,179.840479 L53.9979293,179.841218 C56.1881214,179.840479 57.9870246,181.63078 57.9846492,183.839979 Z M52.1266483,153.686607 C52.1266483,152.090286 53.4264525,150.796212 55.0225732,150.796212 C56.6219484,150.796212 57.9184982,152.097844 57.9184982,153.686607 L57.9184982,173.102633 C57.9184982,174.698954 56.618694,175.993028 55.0225732,175.993028 C53.4231981,175.993028 52.1266483,174.691396 52.1266483,173.102633 L52.1266483,153.686607 Z M40.5429487,105.995751 C40.5429487,104.393914 41.8427529,103.09537 43.4388736,103.09537 C45.0382488,103.09537 46.3347985,104.387247 46.3347985,105.995751 L46.3347985,119.429199 C46.3347985,121.031035 45.0349944,122.32958 43.4388736,122.32958 C41.8394985,122.32958 40.5429487,121.037703 40.5429487,119.429199 L40.5429487,105.995751 Z M5.79184982,112.539883 C5.79184982,110.935561 7.09165397,109.635001 8.68777472,109.635001 C10.2871499,109.635001 11.5836996,110.933163 11.5836996,112.539883 L11.5836996,147.121962 C11.5836996,148.726284 10.2838955,150.026844 8.68777472,150.026844 C7.08839956,150.026844 5.79184982,148.728682 5.79184982,147.121962 L5.79184982,112.539883 Z M17.3755494,84.8426194 C17.3755494,83.2382975 18.6753536,81.9377377 20.2714744,81.9377377 C21.8708495,81.9377377 23.1673993,83.2358991 23.1673993,84.8426194 L23.1673993,119.424699 C23.1673993,121.02902 21.8675951,122.32958 20.2714744,122.32958 C18.6720992,122.32958 17.3755494,121.031419 17.3755494,119.424699 L17.3755494,84.8426194 Z" id="Combined-Shape" fill="#F39C12"></path>
                    <ellipse id="Oval" fill="#FFFFFF" cx="31.855174" cy="246.005555" rx="20.2714744" ry="20.1959213"></ellipse>
                    <path d="M44.5339696,224.270897 C42.3297896,224.270897 40.5429487,222.479204 40.5429487,220.270758 L40.5429487,195.380536 C40.5429487,193.17132 38.7421198,191.380397 36.5519278,191.380397 L38.7421198,191.380397 C36.5379398,191.380397 34.7510989,193.170788 34.7510989,195.372947 L34.7510989,207.968452 C34.7510989,210.173477 32.95027,211.961002 30.7600779,211.961002 L32.95027,211.961002 C30.74609,211.961002 28.9592491,210.177345 28.9592491,207.957059 L28.9592491,179.996971 C28.9592491,177.785655 27.1584202,175.993028 24.9682281,175.993028 L27.1584202,175.993028 C24.9542402,175.993028 23.1673993,177.781319 23.1673993,179.994514 L23.1673993,213.922121 C23.1673993,216.132081 21.3665704,217.923608 19.1763783,217.923608 L21.3665704,217.923608 C19.1623904,217.923608 17.3755494,216.126555 17.3755494,213.931497 L17.3755494,204.027902 C17.3755494,201.82312 15.5747206,200.035792 13.3845285,200.035792 L15.5747206,200.035792 C13.3705406,200.035792 11.5836996,201.825248 11.5836996,204.038236 L11.5836996,246.044024 C11.5836996,234.890124 20.6595478,225.848102 31.855174,225.848102 C43.0507966,225.848102 52.1266426,234.890119 52.1266483,246.044013 L52.1266483,208.850948 C52.1266483,206.638162 50.3258195,204.844344 48.1356274,204.844344 L50.3258195,204.844344 C48.1216395,204.844344 46.3347985,206.637127 46.3347985,208.845984 L46.3347985,220.269258 C46.3347985,222.479302 44.5339696,224.270897 42.3437776,224.270897 L44.5339696,224.270897 Z" id="Combined-Shape" fill="#F1C40F"></path>
                    <rect id="Rectangle" fill="#F1C40F" x="11.5836996" y="185.225449" width="5.79184982" height="9.61710537" rx="2.89592491"></rect>
                    <rect id="Rectangle-Copy" fill="#F1C40F" x="34.7510989" y="171.56916" width="5.79184982" height="16.3490791" rx="2.89592491"></rect>
                </g>
            </g>
        </g>
    </g>
</svg>