<?xml version="1.0" encoding="UTF-8"?>
<svg width="195px" height="102px" viewBox="0 0 195 102" version="1.1" xmlns="http://www.w3.org/2000/svg" xmlns:xlink="http://www.w3.org/1999/xlink">
    <!-- Generator: Sketch 43.2 (39069) - http://www.bohemiancoding.com/sketch -->
    <title>rocket</title>
    <desc>Created with Sketch.</desc>
    <defs>
        <path d="M23.0246914,26.4777933 L23.0246914,56.0511981 C23.0246914,57.1527888 23.9158819,58.0507735 25.015221,58.0507735 L23.5924609,58.0507735 C24.6882216,58.0507735 25.5829905,57.1547416 25.5829905,56.0494302 L25.5829905,36.3388434 C25.5829905,35.238132 26.4741809,34.3375 27.57352,34.3375 L26.1507599,34.3375 C27.2465207,34.3375 28.1412895,35.2367133 28.1412895,36.345949 L28.1412895,108.707085 C28.1412895,116.452315 21.8416473,122.731064 14.0706448,122.731064 C6.29964224,122.731064 0,116.452315 0,108.707085 L0,25.2947277 C0,24.1898016 0.891190445,23.2883045 1.99052957,23.2883045 L0.567769476,23.2883045 C1.66353019,23.2883045 2.55829905,24.1877932 2.55829905,25.2973688 L2.55829905,35.7281882 C2.55829905,36.8334061 3.44948949,37.7372525 4.54882862,37.7372525 L3.12606852,37.7372525 C4.22182924,37.7372525 5.11659809,36.8385371 5.11659809,35.7299155 L5.11659809,19.0060994 C5.11659809,17.8898694 6.00778854,16.9987624 7.10712766,16.9987624 L5.68436757,16.9987624 C6.78012828,16.9987624 7.67489714,17.8919979 7.67489714,18.9938597 L7.67489714,23.3330587 C7.67489714,24.4367649 8.56608759,25.328156 9.66542671,25.328156 L8.24266662,25.328156 C9.33842733,25.328156 10.2331962,24.4364461 10.2331962,23.3364663 L10.2331962,21.6252602 C10.2331962,20.5233495 11.1243866,19.6335706 12.2237258,19.6335706 L10.8009657,19.6335706 C11.8967264,19.6335706 12.7914952,20.528914 12.7914952,21.633376 L12.7914952,45.5967292 C12.7914952,46.6978275 13.6826857,47.5965347 14.7820248,47.5965347 L13.3592647,47.5965347 C14.4550254,47.5965347 15.3497943,46.696943 15.3497943,45.5872404 L15.3497943,35.58185 C15.3497943,34.4711523 16.2409847,33.5725557 17.3403239,33.5725557 L15.9175638,33.5725557 C17.0133245,33.5725557 17.9080933,34.4662022 17.9080933,35.568571 L17.9080933,39.7359464 C17.9080933,40.827587 18.7992838,41.7319617 19.8986229,41.7319617 L18.4758628,41.7319617 C19.5716235,41.7319617 20.4663924,40.8382866 20.4663924,39.7358826 L20.4663924,26.4742969 C20.4663924,25.3815614 21.3575828,24.4782178 22.4569219,24.4782178 L21.0341619,24.4782178 C22.1299226,24.4782178 23.0246914,25.3734583 23.0246914,26.4777933 Z M0,1.28084843 C0,0.573455376 0.567769476,0 1.27914952,0 C1.9856043,0 2.55829905,0.577418984 2.55829905,1.28084843 L2.55829905,18.0127469 C2.55829905,18.7201399 1.99052957,19.2935953 1.27914952,19.2935953 C0.572694749,19.2935953 0,18.7161763 0,18.0127469 L0,1.28084843 Z M15.3497943,18.2861202 C15.3497943,17.5751321 15.9175638,16.9987624 16.6289438,16.9987624 C17.3353986,16.9987624 17.9080933,17.5693253 17.9080933,18.2861202 L17.9080933,29.3954083 C17.9080933,30.1063964 17.3403239,30.6827661 16.6289438,30.6827661 C15.922489,30.6827661 15.3497943,30.1122032 15.3497943,29.3954083 L15.3497943,18.2861202 Z M25.5829905,20.5795553 C25.5829905,19.8693392 26.1507599,19.2935953 26.86214,19.2935953 C27.5685948,19.2935953 28.1412895,19.8653807 28.1412895,20.5795553 L28.1412895,30.9266947 C28.1412895,31.6369108 27.57352,32.2126547 26.86214,32.2126547 C26.1556852,32.2126547 25.5829905,31.6408693 25.5829905,30.9266947 L25.5829905,20.5795553 Z M10.2331962,5.365663 C10.2331962,4.65544689 10.8009657,4.07970297 11.5123457,4.07970297 C12.2188005,4.07970297 12.7914952,4.65148835 12.7914952,5.365663 L12.7914952,15.7128024 C12.7914952,16.4230185 12.2237258,16.9987624 11.5123457,16.9987624 C10.8058909,16.9987624 10.2331962,16.426977 10.2331962,15.7128024 L10.2331962,5.365663 Z" id="path-1"></path>
        <filter x="-5.3%" y="-1.2%" width="110.7%" height="102.4%" filterUnits="objectBoundingBox" id="filter-2">
            <feMorphology radius="0.5" operator="dilate" in="SourceAlpha" result="shadowSpreadOuter1"></feMorphology>
            <feOffset dx="0" dy="0" in="shadowSpreadOuter1" result="shadowOffsetOuter1"></feOffset>
            <feColorMatrix values="0 0 0 0 0.0862745098   0 0 0 0 0.62745098   0 0 0 0 0.521568627  0 0 0 0.3 0" type="matrix" in="shadowOffsetOuter1"></feColorMatrix>
        </filter>
        <path d="M33.2138919,113.80785 C47.660673,113.80785 52.5638016,88.3310954 52.5638016,56.9039252 C52.5638016,25.4767551 26.4055903,-7.10542736e-15 26.4055903,-7.10542736e-15 C26.4055903,-7.10542736e-15 0.247379042,25.4767551 0.247379042,56.9039252 C0.247379042,83.1789642 6.69734894,113.80785 19.5972887,113.80785 L33.2138919,113.80785 Z" id="path-3"></path>
        <path d="M36.1522322,81.5980815 C35.3956306,93.8775774 39.0127614,121.68135 39.0127614,121.68135 C39.0127614,121.68135 42.5883576,93.0046927 41.8855388,81.5980815 C41.18272,70.1914703 36.9088338,69.3185856 36.1522322,81.5980815 Z" id="path-5"></path>
        <filter x="-75.9%" y="-9.2%" width="251.8%" height="118.4%" filterUnits="objectBoundingBox" id="filter-6">
            <feOffset dx="0" dy="0" in="SourceAlpha" result="shadowOffsetOuter1"></feOffset>
            <feGaussianBlur stdDeviation="1.5" in="shadowOffsetOuter1" result="shadowBlurOuter1"></feGaussianBlur>
            <feColorMatrix values="0 0 0 0 0   0 0 0 0 0   0 0 0 0 0  0 0 0 0.5 0" type="matrix" in="shadowBlurOuter1"></feColorMatrix>
        </filter>
    </defs>
    <g id="Page-1" stroke="none" stroke-width="1" fill="none" fill-rule="evenodd">
        <g id="Desktop-HD" transform="translate(-870.000000, -182.000000)">
            <g id="Rocket" transform="translate(976.606316, 227.394923) rotate(15.000000) translate(-976.606316, -227.394923) translate(878.724834, 138.297677)">
                <g id="Group-2" transform="translate(52.648061, 121.558438) rotate(-127.000000) translate(-52.648061, -121.558438) translate(38.513446, 60.135903)">
                    <g id="Combined-Shape">
                        <use fill="black" fill-opacity="1" filter="url(#filter-2)" xlink:href="#path-1"></use>
                        <use fill="#16A085" fill-rule="evenodd" xlink:href="#path-1"></use>
                    </g>
                    <path d="M25.6119707,81.4594076 C25.6119707,81.4594076 25.5829905,108.406218 25.5829905,108.707085 C25.5829905,115.044092 20.4287377,120.18125 14.0706448,120.18125 C7.71255179,120.18125 2.55829905,115.044092 2.55829905,108.707085 C2.55829905,108.405992 2.59373228,73.4805752 2.59373228,73.4805752 C2.59485217,72.3761032 3.48695005,71.4811784 4.58628917,71.4808913 L3.16352908,71.4812628 C4.25928979,71.4809767 5.14644273,72.3748113 5.13704802,73.4777005 L5.11170776,76.4525126 C5.10233608,77.5526973 5.98588757,78.4494068 7.0852267,78.4493287 L5.6624666,78.4494298 C6.75822732,78.449352 7.65719202,77.554201 7.66236786,76.4500547 L7.74044657,59.7937498 C7.74565793,58.6820259 8.64100869,57.7949606 9.74034782,57.7955089 L8.31758773,57.7947993 C9.41334844,57.7953458 10.3081173,58.6895379 10.3081173,59.7920293 L10.3081173,73.5015822 C10.3081173,74.5956364 11.1993077,75.4981291 12.2986469,75.4985112 L10.8758868,75.4980167 C11.9716475,75.4983975 12.8578171,74.6043619 12.8472095,73.5011295 L12.7669002,65.1486854 C12.7562316,64.0391155 13.6388837,63.1508611 14.7382229,63.1505585 L13.3154628,63.1509502 C14.4112235,63.1506486 15.3163754,64.0437393 15.3291836,65.1457264 L15.3796231,69.4854188 C15.3924528,70.5892506 16.2940049,71.4804131 17.393344,71.480006 L15.9705839,71.4805328 C17.0663446,71.4801271 17.9572205,70.5824336 17.9524182,69.4754813 L17.9104472,59.8008707 C17.9056468,58.6943517 18.7929424,57.79629 19.8922815,57.7959617 L18.4695214,57.7963866 C19.5652821,57.7960593 20.4582033,58.6953175 20.4559239,59.8049383 L20.4048165,84.6851971 C20.4025311,85.797778 21.2918799,86.6941151 22.391219,86.6938336 L20.968459,86.6941979 C22.0642197,86.6939173 22.9709485,85.8013894 22.9857019,84.7006832 L23.0290972,81.4630837 C23.0439383,80.355835 23.947001,79.4697775 25.0463402,79.469406 L23.6235801,79.4698868 C24.7193408,79.4695165 25.613152,80.3602541 25.6119707,81.4594076 Z M23.0246914,67.9123816 C23.0246914,67.2069853 23.5924609,66.6351486 24.3038409,66.6351486 C25.0102957,66.6351486 25.5829905,67.202602 25.5829905,67.9123816 L25.5829905,76.4921048 C25.5829905,77.1975012 25.015221,77.7693379 24.3038409,77.7693379 C23.5973862,77.7693379 23.0246914,77.2018845 23.0246914,76.4921048 L23.0246914,67.9123816 Z M17.9080933,46.8291264 C17.9080933,46.1263754 18.4758628,45.5566832 19.1872429,45.5566832 C19.8936976,45.5566832 20.4663924,46.1275492 20.4663924,46.8291264 L20.4663924,52.7836211 C20.4663924,53.4863721 19.8986229,54.0560644 19.1872429,54.0560644 C18.4807881,54.0560644 17.9080933,53.4851984 17.9080933,52.7836211 L17.9080933,46.8291264 Z M2.55829905,49.7301073 C2.55829905,49.0211756 3.12606852,48.4464728 3.83744857,48.4464728 C4.54390335,48.4464728 5.11659809,49.0201157 5.11659809,49.7301073 L5.11659809,65.0115388 C5.11659809,65.7204706 4.54882862,66.2951733 3.83744857,66.2951733 C3.1309938,66.2951733 2.55829905,65.7215304 2.55829905,65.0115388 L2.55829905,49.7301073 Z M7.67489714,37.4909984 C7.67489714,36.7820666 8.24266662,36.2073639 8.95404666,36.2073639 C9.66050144,36.2073639 10.2331962,36.7810068 10.2331962,37.4909984 L10.2331962,52.7724299 C10.2331962,53.4813616 9.66542671,54.0560644 8.95404666,54.0560644 C8.24759189,54.0560644 7.67489714,53.4824215 7.67489714,52.7724299 L7.67489714,37.4909984 Z" id="Combined-Shape" fill="#2ECC71"></path>
                    <ellipse id="Oval" fill="#FFFFFF" cx="14.0706448" cy="108.707085" rx="8.95404666" ry="8.92435025"></ellipse>
                    <path d="M19.8986229,99.1027847 C18.7992838,99.1027847 17.9080933,98.2154999 17.9080933,97.1123765 L17.9080933,86.5592511 C17.9080933,85.459979 17.0133245,84.5688429 15.9175638,84.5688429 L17.3403239,84.5688429 C16.2409847,84.5688429 15.3497943,85.4740911 15.3497943,86.5646339 L15.3497943,91.6673897 C15.3497943,92.7696347 14.4550254,93.6631807 13.3592647,93.6631807 L14.7820248,93.6631807 C13.6826857,93.6631807 12.7914952,92.7631198 12.7914952,91.6663079 L12.7914952,79.7662107 C12.7914952,78.6633683 11.8967264,77.7693379 10.8009657,77.7693379 L12.2237258,77.7693379 C11.1243866,77.7693379 10.2331962,78.6630133 10.2331962,79.7698327 L10.2331962,94.2974941 C10.2331962,95.4023369 9.33842733,96.2979889 8.24266662,96.2979889 L9.66542671,96.2979889 C8.56608759,96.2979889 7.67489714,95.4066161 7.67489714,94.3033689 L7.67489714,90.3881845 C7.67489714,89.2865862 6.78012828,88.3935644 5.68436757,88.3935644 L7.10712766,88.3935644 C6.00778854,88.3935644 5.11659809,89.293374 5.11659809,90.3985727 L5.11659809,108.724084 C5.11659809,103.795302 9.12546134,99.799734 14.0706448,99.799734 C19.0158266,99.799734 23.0246889,103.795299 23.0246914,108.72408 L23.0246914,92.5188131 C23.0246914,91.4140208 22.1299226,90.5184097 21.0341619,90.5184097 L22.4569219,90.5184097 C21.3575828,90.5184097 20.4663924,91.4047559 20.4663924,92.5094147 L20.4663924,97.1117798 C20.4663924,98.2113814 19.5716235,99.1027847 18.4758628,99.1027847 L19.8986229,99.1027847 Z" id="Combined-Shape" fill="#9B59B6"></path>
                    <rect id="Rectangle" fill="#9B59B6" x="5.11659809" y="81.8490409" width="2.55829905" height="4.2496906" rx="1.27914952"></rect>
                    <rect id="Rectangle-Copy" fill="#9B59B6" x="15.3497943" y="75.8144802" width="2.55829905" height="7.22447401" rx="1.27914952"></rect>
                </g>
                <g transform="translate(113.776815, 74.854836) rotate(53.000000) translate(-113.776815, -74.854836) translate(75.770405, 0.897089)">
                    <path d="M14.3332664,75.1561277 C-2.84447059,84.7109386 0.716663322,121.68135 0.716663322,121.68135 C0.716663322,121.68135 15.2899273,98.4187386 20.9032351,97.9648088 C26.5165429,97.5108789 18.8441814,75.6344724 14.3332664,75.1561277 Z" id="Oval" fill="#1ABC9C"></path>
                    <path d="M67.1880256,75.1561277 C50.0102886,84.7109386 53.5714225,121.68135 53.5714225,121.68135 C53.5714225,121.68135 68.1446865,98.4187386 73.7579943,97.9648088 C79.3713021,97.5108789 71.6989406,75.6344724 67.1880256,75.1561277 Z" id="Oval" fill="#1ABC9C" transform="translate(64.499699, 98.418739) scale(-1, 1) translate(-64.499699, -98.418739) "></path>
                    <path d="M45.1497893,113.80785 C59.5965705,113.80785 64.499699,88.3310954 64.499699,56.9039252 C64.499699,25.4767551 38.3414877,0 38.3414877,0 C38.3414877,0 12.1832765,25.4767551 12.1832765,56.9039252 C12.1832765,83.1789642 18.6332464,113.80785 31.5331862,113.80785 L45.1497893,113.80785 Z" id="Oval" fill="#444444"></path>
                    <g id="Rectangle-Copy-3" transform="translate(11.935897, 0.000000)">
                        <mask id="mask-4" fill="white">
                            <use xlink:href="#path-3"></use>
                        </mask>
                        <g id="Mask"></g>
                        <rect fill="#9B59B6" mask="url(#mask-4)" x="-1.75954041" y="51.6410848" width="5.51140134" height="23.9989957" rx="2.75570067"></rect>
                        <rect id="Rectangle-Copy-7" fill="#9B59B6" mask="url(#mask-4)" x="8.16666667" y="51.3943662" width="5.51140134" height="23.9989957" rx="2.75570067"></rect>
                        <rect id="Rectangle-Copy-10" fill="#9B59B6" mask="url(#mask-4)" x="48.874925" y="51.1476476" width="5.51140134" height="23.9989957" rx="2.75570067"></rect>
                        <rect id="Rectangle-Copy-12" fill="#9B59B6" mask="url(#mask-4)" x="39.4518481" y="51.1476476" width="5.51140134" height="23.9989957" rx="2.75570067"></rect>
                    </g>
                    <path d="M52.220431,17.9463913 C45.4254432,6.89940906 38.3414877,0 38.3414877,0 C38.3414877,0 31.0952479,7.05746566 24.2304933,18.3254601 C18.0523923,28.4663627 58.4827856,28.1274427 52.220431,17.9463913 Z" id="Oval" fill="#1ABC9C"></path>
                    <ellipse id="Oval-2" fill="#1ABC9C" cx="38.6998194" cy="40.7990407" rx="9.31662319" ry="9.30504438"></ellipse>
                    <g id="Path-2">
                        <use fill="black" fill-opacity="1" filter="url(#filter-6)" xlink:href="#path-5"></use>
                        <use fill="#1ABC9C" fill-rule="evenodd" xlink:href="#path-5"></use>
                    </g>
                </g>
            </g>
        </g>
    </g>
</svg>