<?xml version="1.0" encoding="UTF-8"?>
<svg width="275px" height="147px" viewBox="0 0 275 147" version="1.1" xmlns="http://www.w3.org/2000/svg" xmlns:xlink="http://www.w3.org/1999/xlink">
    <!-- Generator: Sketch 43.2 (39069) - http://www.bohemiancoding.com/sketch -->
    <title>saturn</title>
    <desc>Created with Sketch.</desc>
    <defs>
        <path d="M3.88918254,207.813512 C-10.0770552,193.847274 24.3279024,136.798571 80.734806,80.3916676 C137.14171,23.984764 194.190413,-10.4201936 208.15665,3.54604415 C222.122888,17.5122819 187.71793,74.5609847 131.311027,130.967888 C74.9041231,187.374792 17.8554202,221.77975 3.88918254,207.813512 Z M19.1787801,192.523914 C31.0542478,204.399382 79.5626606,175.144906 127.525353,127.182214 C175.488045,79.2195222 204.74252,30.7111094 192.867053,18.8356417 C180.991585,6.96017411 132.483172,36.2146497 84.5204801,84.1773417 C36.5577881,132.140034 7.3033125,180.648447 19.1787801,192.523914 Z M27.6403259,184.062368 C16.921929,173.343972 43.3260327,129.561913 86.6155421,86.2724037 C129.905051,42.9828943 173.68711,16.5787906 184.405507,27.2971875 C195.123904,38.0155843 168.7198,81.7976429 125.430291,125.087152 C82.1407813,168.376662 38.3587227,194.780765 27.6403259,184.062368 Z M39.374336,172.328358 C48.4881702,181.442193 85.7159784,158.990829 122.524973,122.181835 C159.333968,85.3728401 181.785331,48.1450318 172.671497,39.0311976 C163.557663,29.9173634 126.329854,52.3687269 89.5208598,89.1777214 C52.7118653,125.986716 30.2605018,163.214524 39.374336,172.328358 Z" id="path-1"></path>
        <filter x="-0.5%" y="-19.1%" width="101.9%" height="138.2%" filterUnits="objectBoundingBox" id="filter-2">
            <feOffset dx="1" dy="1" in="SourceAlpha" result="shadowOffsetOuter1"></feOffset>
            <feGaussianBlur stdDeviation="0.5" in="shadowOffsetOuter1" result="shadowBlurOuter1"></feGaussianBlur>
            <feColorMatrix values="0 0 0 0 0   0 0 0 0 0   0 0 0 0 0  0 0 0 0.5 0" type="matrix" in="shadowBlurOuter1"></feColorMatrix>
        </filter>
        <path d="M123.631559,19.2671307 C110.502377,7.29933366 93.0300066,0 73.8498498,0 C33.063704,0 0,33.0068628 0,73.7228916 C0,92.02753 6.68256192,108.774056 17.7451018,121.663843 C31.2895867,137.445529 138.42127,32.7485686 123.631559,19.2671307 Z" id="path-3"></path>
    </defs>
    <g id="Page-1" stroke="none" stroke-width="1" fill="none" fill-rule="evenodd">
        <g id="Desktop-HD" transform="translate(-1114.000000, -49.000000)">
            <g id="Saturn" transform="translate(1251.000000, 115.500000) rotate(25.000000) translate(-1251.000000, -115.500000) translate(1145.000000, 10.000000)">
                <g>
                    <g id="planet" transform="translate(110.774775, 111.219880) rotate(-45.000000) translate(-110.774775, -111.219880) translate(37.561562, 38.132530)">
                        <g>
                            <circle id="Oval" fill="#F39C12" cx="73" cy="73" r="73"></circle>
                            <circle id="Oval" fill="#D35400" cx="73" cy="73" r="66.3636364"></circle>
                            <path d="M73,15.4848485 C41.2352589,15.4848485 15.4848485,41.2352589 15.4848485,73 C15.4848485,104.764741 41.2352589,130.515152 73,130.515152 L73,15.4848485 Z" id="Combined-Shape" fill="#E67E22"></path>
                            <rect id="Rectangle-3" fill="#E67E22" x="68.5757576" y="15.4848485" width="23.0060606" height="8.84848485" rx="4.42424242"></rect>
                            <rect id="Rectangle-3-Copy-5" fill="#D35400" x="34.5090909" y="59.7272727" width="50.8787879" height="8.84848485" rx="4.42424242"></rect>
                            <rect id="Rectangle-3-Copy" fill="#D35400" x="50.8787879" y="24.3333333" width="50.8787879" height="8.84848485" rx="4.42424242"></rect>
                            <rect id="Rectangle-3-Copy-6" fill="#E67E22" x="68.5757576" y="68.5757576" width="33.1818182" height="8.84848485" rx="4.42424242"></rect>
                            <rect id="Rectangle-3-Copy-2" fill="#E67E22" x="68.5757576" y="33.1818182" width="27.430303" height="8.84848485" rx="4.42424242"></rect>
                            <rect id="Rectangle-3-Copy-7" fill="#D35400" x="60.169697" y="77.4242424" width="50.8787879" height="8.84848485" rx="4.42424242"></rect>
                            <rect id="Rectangle-3-Copy-3" fill="#D35400" x="63.2666667" y="42.030303" width="50.8787879" height="8.84848485" rx="4.42424242"></rect>
                            <rect id="Rectangle-3-Copy-8" fill="#E67E22" x="68.5757576" y="86.2727273" width="23.0060606" height="8.84848485" rx="4.42424242"></rect>
                            <rect id="Rectangle-3-Copy-10" fill="#E67E22" x="68.5757576" y="103.969697" width="33.1818182" height="8.84848485" rx="4.42424242"></rect>
                            <rect id="Rectangle-3-Copy-4" fill="#E67E22" x="68.5757576" y="50.8787879" width="38.4909091" height="8.84848485" rx="4.42424242"></rect>
                            <rect id="Rectangle-3-Copy-9" fill="#D35400" x="50.8787879" y="95.1212121" width="50.8787879" height="8.84848485" rx="4.42424242"></rect>
                            <rect id="Rectangle-3-Copy-11" fill="#D35400" x="65.9212121" y="112.818182" width="50.8787879" height="8.84848485" rx="4.42424242"></rect>
                            <rect id="Rectangle-3-Copy-12" fill="#E67E22" x="68.5757576" y="121.666667" width="17.2545455" height="8.84848485" rx="4.42424242"></rect>
                        </g>
                    </g>
                    <g id="Group-2">
                        <g id="Combined-Shape">
                            <use fill="black" fill-opacity="1" filter="url(#filter-2)" xlink:href="#path-1"></use>
                            <use fill="#E74C3C" fill-rule="evenodd" xlink:href="#path-1"></use>
                        </g>
                    </g>
                    <g id="Group-3" transform="translate(36.924925, 37.496988)">
                        <mask id="mask-4" fill="white">
                            <use xlink:href="#path-3"></use>
                        </mask>
                        <g id="Mask"></g>
                        <g id="planet" mask="url(#mask-4)">
                            <g transform="translate(73.849850, 73.722892) rotate(-45.000000) translate(-73.849850, -73.722892) translate(0.636637, 0.635542)">
                                <g>
                                    <circle id="Oval" fill="#F39C12" cx="73" cy="73" r="73"></circle>
                                    <circle id="Oval" fill="#D35400" cx="73" cy="73" r="66.3636364"></circle>
                                    <path d="M73,15.4848485 C41.2352589,15.4848485 15.4848485,41.2352589 15.4848485,73 C15.4848485,104.764741 41.2352589,130.515152 73,130.515152 L73,15.4848485 Z" id="Combined-Shape" fill="#E67E22"></path>
                                    <rect id="Rectangle-3" fill="#E67E22" x="68.5757576" y="15.4848485" width="23.0060606" height="8.84848485" rx="4.42424242"></rect>
                                    <rect id="Rectangle-3-Copy-5" fill="#D35400" x="34.5090909" y="59.7272727" width="50.8787879" height="8.84848485" rx="4.42424242"></rect>
                                    <rect id="Rectangle-3-Copy" fill="#D35400" x="50.8787879" y="24.3333333" width="50.8787879" height="8.84848485" rx="4.42424242"></rect>
                                    <rect id="Rectangle-3-Copy-6" fill="#E67E22" x="68.5757576" y="68.5757576" width="33.1818182" height="8.84848485" rx="4.42424242"></rect>
                                    <rect id="Rectangle-3-Copy-2" fill="#E67E22" x="68.5757576" y="33.1818182" width="27.430303" height="8.84848485" rx="4.42424242"></rect>
                                    <rect id="Rectangle-3-Copy-7" fill="#D35400" x="60.169697" y="77.4242424" width="50.8787879" height="8.84848485" rx="4.42424242"></rect>
                                    <rect id="Rectangle-3-Copy-3" fill="#D35400" x="63.2666667" y="42.030303" width="50.8787879" height="8.84848485" rx="4.42424242"></rect>
                                    <rect id="Rectangle-3-Copy-8" fill="#E67E22" x="68.5757576" y="86.2727273" width="23.0060606" height="8.84848485" rx="4.42424242"></rect>
                                    <rect id="Rectangle-3-Copy-10" fill="#E67E22" x="68.5757576" y="103.969697" width="33.1818182" height="8.84848485" rx="4.42424242"></rect>
                                    <rect id="Rectangle-3-Copy-4" fill="#E67E22" x="68.5757576" y="50.8787879" width="38.4909091" height="8.84848485" rx="4.42424242"></rect>
                                    <rect id="Rectangle-3-Copy-9" fill="#D35400" x="50.8787879" y="95.1212121" width="50.8787879" height="8.84848485" rx="4.42424242"></rect>
                                    <rect id="Rectangle-3-Copy-11" fill="#D35400" x="65.9212121" y="112.818182" width="50.8787879" height="8.84848485" rx="4.42424242"></rect>
                                    <rect id="Rectangle-3-Copy-12" fill="#E67E22" x="68.5757576" y="121.666667" width="17.2545455" height="8.84848485" rx="4.42424242"></rect>
                                </g>
                            </g>
                        </g>
                    </g>
                </g>
            </g>
        </g>
    </g>
</svg>