<?xml version="1.0" encoding="UTF-8"?>
<svg width="135px" height="135px" viewBox="0 0 135 135" version="1.1" xmlns="http://www.w3.org/2000/svg" xmlns:xlink="http://www.w3.org/1999/xlink">
    <!-- Generator: Sketch 43.2 (39069) - http://www.bohemiancoding.com/sketch -->
    <title>sun</title>
    <desc>Created with Sketch.</desc>
    <defs></defs>
    <g id="Page-1" stroke="none" stroke-width="1" fill="none" fill-rule="evenodd">
        <g id="Desktop-HD" transform="translate(-30.000000, -30.000000)">
            <g id="sun-2" transform="translate(30.000000, 30.000000)">
                <g id="planet">
                    <circle id="Oval" fill-opacity="0.15" fill="#F1C40F" cx="67.5" cy="67.5" r="67.5"></circle>
                    <circle id="Oval" fill-opacity="0.3" fill="#F1C40F" cx="67.5" cy="67.5" r="59.0625"></circle>
                    <circle id="Oval" fill="#F1C40F" cx="67.5" cy="67.5" r="50.625"></circle>
                    <path d="M67.4966516,111.375 C43.266697,111.37319 23.625,91.7303772 23.625,67.5 C23.625,43.2685066 43.2685066,23.625 67.5,23.625 C67.502938,23.6250037 67.5058768,23.625 67.5088165,23.625 L78.2911835,23.625 C80.1600137,23.625 81.675,25.1398318 81.675,27 C81.675,28.863961 80.1635073,30.375 78.2911835,30.375 L67.5088165,30.375 C67.5058768,30.375 67.502938,30.3749963 67.5,30.3749888 L67.5,37.125 L81.6764161,37.125 C83.5395951,37.125 85.05,38.6398318 85.05,40.5 C85.05,42.363961 83.5451256,43.875 81.6764161,43.875 L67.5,43.875 L67.5,50.625 L90.1192479,50.625 C91.9794822,50.625 93.4875,52.1398318 93.4875,54 C93.4875,55.863961 91.9706746,57.375 90.1192479,57.375 L67.5,57.375 L67.5,64.125 L86.0631119,64.125 C87.926735,64.125 89.4375,65.6398318 89.4375,67.5 C89.4375,69.363961 87.929892,70.875 86.0631119,70.875 L67.5,70.875 L67.5,77.6250112 C67.502938,77.6250037 67.5058768,77.625 67.5088165,77.625 L78.2911835,77.625 C80.1600137,77.625 81.675,79.1398318 81.675,81 C81.675,82.863961 80.1635073,84.375 78.2911835,84.375 L67.5088165,84.375 C67.5058768,84.375 67.502938,84.3749963 67.5,84.3749888 L67.5,91.125 L86.0631119,91.125 C87.926735,91.125 89.4375,92.6398318 89.4375,94.5 C89.4375,96.363961 87.929892,97.875 86.0631119,97.875 L67.5,97.875 L67.5,104.625 L73.9149216,104.625 C75.7775452,104.625 77.2875,106.139832 77.2875,108 C77.2875,109.863961 75.7775939,111.375 73.9149216,111.375 L67.4975784,111.375 C67.4972695,111.375 67.4969605,111.375 67.4966516,111.375 Z" id="Combined-Shape" fill="#E67E22"></path>
                    <rect id="Rectangle-3-Copy-5" fill="#F1C40F" x="38.1375" y="57.375" width="38.8125" height="6.75" rx="3.375"></rect>
                    <rect id="Rectangle-3-Copy" fill="#F1C40F" x="50.625" y="30.375" width="38.8125" height="6.75" rx="3.375"></rect>
                    <rect id="Rectangle-3-Copy-7" fill="#F1C40F" x="57.7125" y="70.875" width="38.8125" height="6.75" rx="3.375"></rect>
                    <rect id="Rectangle-3-Copy-3" fill="#F1C40F" x="60.075" y="43.875" width="38.8125" height="6.75" rx="3.375"></rect>
                    <rect id="Rectangle-3-Copy-9" fill="#F1C40F" x="50.625" y="84.375" width="38.8125" height="6.75" rx="3.375"></rect>
                    <rect id="Rectangle-3-Copy-11" fill="#F1C40F" x="62.1" y="97.875" width="38.8125" height="6.75" rx="3.375"></rect>
                </g>
            </g>
        </g>
    </g>
</svg>